<?xml version="1.0" standalone="no"?>
<!DOCTYPE svg PUBLIC "-//W3C//DTD SVG 20010904//EN"
 "http://www.w3.org/TR/2001/REC-SVG-20010904/DTD/svg10.dtd">
<svg version="1.0" xmlns="http://www.w3.org/2000/svg"
 width="512.000000pt" height="512.000000pt" viewBox="0 0 512.000000 512.000000"
 preserveAspectRatio="xMidYMid meet">
<metadata>
Created by Loiane
</metadata>
<g transform="translate(0.000000,512.000000) scale(0.100000,-0.100000)"
fill="#000000" stroke="none">
<path d="M2428 4905 c-2 -2 -39 -6 -83 -9 -44 -3 -91 -8 -105 -11 -14 -3 -45
-7 -69 -10 -24 -3 -46 -7 -50 -9 -3 -2 -24 -7 -46 -10 -56 -9 -174 -42 -280
-78 -49 -17 -95 -31 -102 -31 -7 0 -10 -4 -7 -9 3 -4 -2 -8 -12 -8 -35 0 -340
-162 -436 -232 -10 -7 -34 -24 -54 -38 -46 -32 -157 -124 -213 -175 -61 -55
-190 -185 -184 -185 2 0 -18 -26 -45 -57 -27 -32 -83 -108 -123 -168 -95 -143
-95 -142 -120 -195 -12 -25 -26 -48 -31 -51 -5 -3 -9 -9 -9 -13 1 -3 -15 -39
-34 -80 -19 -41 -35 -77 -35 -81 0 -4 -6 -21 -14 -38 -16 -38 -60 -158 -62
-172 -1 -5 -7 -30 -15 -55 -14 -50 -13 -45 -29 -115 -6 -27 -16 -53 -23 -57
-9 -6 -9 -8 1 -8 8 0 11 -7 8 -17 -35 -118 -53 -509 -31 -688 4 -33 8 -69 10
-80 1 -11 5 -31 8 -45 3 -14 11 -54 18 -90 20 -98 23 -109 62 -235 17 -55 32
-102 32 -105 8 -27 78 -185 86 -195 5 -5 9 -17 9 -26 0 -9 7 -22 15 -29 8 -7
13 -16 10 -20 -3 -4 2 -13 11 -20 8 -7 12 -20 9 -29 -3 -8 -3 -12 1 -8 4 4 13
-5 21 -19 16 -32 17 -48 1 -38 -7 4 -8 3 -4 -4 4 -6 13 -9 21 -5 9 3 15 -1 15
-11 0 -9 4 -16 8 -16 5 0 14 -11 20 -25 7 -14 30 -50 52 -80 41 -56 49 -72 28
-59 -7 4 -8 3 -4 -5 4 -6 11 -9 16 -6 9 6 61 -59 64 -80 1 -8 6 -18 11 -22 4
-4 5 -1 1 7 -5 8 10 -5 32 -30 22 -24 38 -49 35 -54 -3 -5 -2 -6 4 -3 14 9 76
-61 67 -75 -4 -6 -3 -8 4 -4 6 3 37 -19 69 -50 32 -31 68 -63 80 -71 13 -8 20
-19 17 -24 -3 -5 -1 -8 4 -7 6 2 33 -15 62 -36 38 -29 48 -41 38 -48 -9 -7 -8
-8 5 -4 11 3 36 -7 65 -27 26 -18 73 -48 105 -66 31 -18 57 -37 57 -42 0 -5 3
-8 8 -7 14 4 52 -14 52 -24 0 -6 3 -8 6 -5 10 9 46 -12 39 -23 -4 -6 2 -9 12
-8 22 3 143 -51 143 -64 0 -5 4 -7 9 -4 10 7 71 -13 71 -23 0 -4 12 -8 27 -9
15 -1 30 -7 34 -13 3 -6 8 -9 10 -8 2 2 33 -5 69 -16 36 -10 69 -18 74 -16 5
1 6 -6 2 -15 -5 -14 -4 -15 9 -4 18 15 49 5 39 -12 -6 -10 -5 -10 7 -1 12 10
21 9 42 -2 16 -8 25 -9 21 -3 -4 7 -3 8 5 4 11 -7 41 -14 91 -21 14 -2 25 -4
25 -5 0 -2 30 -6 83 -11 17 -2 32 -7 32 -12 0 -5 6 -5 13 1 10 9 19 7 37 -5
13 -9 20 -11 16 -5 -5 8 0 12 13 12 11 0 23 -5 26 -10 4 -6 10 -8 15 -5 5 3
93 7 197 9 103 3 199 7 213 10 25 5 76 13 135 22 37 5 70 12 70 14 0 1 9 3 19
5 11 2 31 6 44 10 17 4 22 2 17 -7 -4 -7 0 -5 8 5 8 9 21 17 29 17 22 0 211
61 225 72 7 6 20 8 28 4 11 -4 14 -2 9 6 -5 7 0 9 14 6 13 -4 23 0 27 10 3 8
8 12 11 9 3 -3 31 8 61 24 30 16 52 24 48 17 -4 -7 1 -4 9 6 9 11 16 16 16 12
0 -4 14 2 30 14 17 12 30 18 30 13 0 -4 4 -3 8 3 8 12 68 45 78 43 4 0 10 4
13 9 11 17 92 63 101 57 5 -3 12 0 16 6 5 8 2 10 -7 5 -8 -4 -6 -1 5 6 10 7
38 28 62 46 24 18 49 30 54 27 6 -4 9 -2 8 4 -4 14 92 92 103 85 5 -3 8 -2 7
3 -4 11 77 93 92 93 6 0 8 4 5 10 -6 10 6 14 35 11 13 -2 13 0 1 8 -12 7 -8
16 19 45 18 19 38 32 43 29 6 -3 7 -2 4 4 -3 5 4 20 16 34 12 13 40 47 62 74
22 28 42 52 45 55 3 3 23 31 44 62 21 32 42 55 46 53 4 -2 7 2 7 9 0 16 72
137 93 154 8 8 10 11 3 8 -7 -4 -6 4 3 24 9 17 20 28 25 25 5 -4 6 1 3 9 -3 8
3 28 14 44 12 15 24 41 28 56 3 15 13 30 20 33 8 3 12 9 9 13 -6 10 14 70 30
90 7 8 10 21 8 28 -3 6 0 12 6 12 6 0 10 3 9 8 -5 14 25 102 32 97 5 -3 6 4 3
15 -3 11 -2 28 2 37 5 10 9 23 10 28 2 6 10 38 19 73 9 34 19 81 22 105 3 23
8 49 11 57 7 20 15 86 17 137 0 24 3 43 6 43 3 0 4 16 2 36 -4 29 -2 35 9 28
11 -6 10 -3 -1 11 -8 10 -15 19 -14 19 9 11 24 47 17 43 -4 -3 -8 43 -7 101 0
59 -3 117 -7 129 -5 13 -4 25 2 28 5 4 7 11 3 16 -3 6 -8 25 -10 42 -3 18 -7
43 -10 55 -3 18 -1 22 8 16 10 -6 11 -5 1 7 -7 9 -15 33 -19 55 -8 56 -41 202
-57 254 -7 25 -15 50 -17 55 -26 87 -64 191 -94 254 -14 30 -22 59 -19 65 3 6
3 8 -2 4 -4 -4 -24 26 -45 65 -38 74 -148 258 -160 267 -3 3 -21 28 -40 55
-19 28 -36 52 -39 55 -3 3 -33 36 -66 75 -263 307 -645 562 -1035 692 -58 19
-112 36 -120 38 -8 2 -53 12 -100 23 -78 18 -155 32 -205 37 -11 1 -49 6 -85
10 -67 7 -356 15 -362 10z"/>
<path d="M170 2406 c0 -2 7 -7 16 -10 8 -3 12 -2 9 4 -6 10 -25 14 -25 6z"/>
<path d="M4756 1607 c3 -10 9 -15 12 -12 3 3 0 11 -7 18 -10 9 -11 8 -5 -6z"/>
<path d="M556 1273 c-6 -14 -5 -15 5 -6 7 7 10 15 7 18 -3 3 -9 -2 -12 -12z"/>
<path d="M613 1205 c0 -8 4 -12 9 -9 5 3 6 10 3 15 -9 13 -12 11 -12 -6z"/>
<path d="M675 1101 c-3 -5 -2 -12 3 -15 5 -3 9 1 9 9 0 17 -3 19 -12 6z"/>
<path d="M1095 700 c3 -5 8 -10 11 -10 2 0 4 5 4 10 0 6 -5 10 -11 10 -5 0 -7
-4 -4 -10z"/>
<path d="M3930 620 c0 -5 5 -10 11 -10 5 0 7 5 4 10 -3 6 -8 10 -11 10 -2 0
-4 -4 -4 -10z"/>
<path d="M3826 558 c3 -5 10 -6 15 -3 13 9 11 12 -6 12 -8 0 -12 -4 -9 -9z"/>
<path d="M1346 522 c-3 -5 1 -9 9 -9 8 0 12 4 9 9 -3 4 -7 8 -9 8 -2 0 -6 -4
-9 -8z"/>
<path d="M1490 425 c0 -7 30 -13 34 -7 3 4 -4 9 -15 9 -10 1 -19 0 -19 -2z"/>
<path d="M1655 360 c-3 -5 -1 -10 4 -10 6 0 11 5 11 10 0 6 -2 10 -4 10 -3 0
-8 -4 -11 -10z"/>
<path d="M3406 338 c3 -5 10 -6 15 -3 13 9 11 12 -6 12 -8 0 -12 -4 -9 -9z"/>
<path d="M3319 313 c-13 -16 -12 -17 4 -4 9 7 17 15 17 17 0 8 -8 3 -21 -13z"/>
<path d="M3190 276 c7 -7 13 -7 20 0 6 6 3 10 -10 10 -13 0 -16 -4 -10 -10z"/>
<path d="M1749 263 c-13 -16 -12 -17 4 -4 16 13 21 21 13 21 -2 0 -10 -8 -17
-17z"/>
<path d="M1835 271 c-3 -5 -2 -12 3 -15 5 -3 9 1 9 9 0 17 -3 19 -12 6z"/>
<path d="M1900 260 c8 -5 20 -10 25 -10 6 0 3 5 -5 10 -8 5 -19 10 -25 10 -5
0 -3 -5 5 -10z"/>
<path d="M2050 226 c0 -2 7 -7 16 -10 8 -3 12 -2 9 4 -6 10 -25 14 -25 6z"/>
<path d="M2970 219 c0 -5 5 -7 10 -4 6 3 10 8 10 11 0 2 -4 4 -10 4 -5 0 -10
-5 -10 -11z"/>
<path d="M3015 220 c3 -5 8 -10 11 -10 2 0 4 5 4 10 0 6 -5 10 -11 10 -5 0 -7
-4 -4 -10z"/>
<path d="M3095 221 c-3 -5 -2 -12 3 -15 5 -3 9 1 9 9 0 17 -3 19 -12 6z"/>
<path d="M2256 182 c-3 -5 1 -9 9 -9 8 0 12 4 9 9 -3 4 -7 8 -9 8 -2 0 -6 -4
-9 -8z"/>
<path d="M2495 180 c3 -5 8 -10 11 -10 2 0 4 5 4 10 0 6 -5 10 -11 10 -5 0 -7
-4 -4 -10z"/>
<path d="M2535 180 c3 -5 8 -10 11 -10 2 0 4 5 4 10 0 6 -5 10 -11 10 -5 0 -7
-4 -4 -10z"/>
<path d="M2754 182 c4 -3 14 -7 22 -8 9 -1 13 0 10 4 -4 3 -14 7 -22 8 -9 1
-13 0 -10 -4z"/>
</g>
</svg>
