<svg xmlns="http://www.w3.org/2000/svg" width="362.734" height="411.38" viewBox="0 100.62 362.734 411.38"><path fill="#264DE4" d="M181.145 512L33.011 470.877 0 100.62h362.734l-33.046 370.199z"/><path fill="#2965F1" d="M301.397 447.246l28.24-316.352h-148.27v349.629z"/><path fill="#EBEBEB" d="M75.677 268.217l4.07 45.41h101.62v-45.41zm-8.178-91.912l4.128 45.411h109.74v-45.411h-.157zm113.868 209.848l-.199.053-50.574-13.656-3.233-36.217H81.776l6.362 71.301 93.02 25.823.209-.058z"/><path fill="#FFF" d="M286.766 268.217l8.198-91.912H181.21v45.411h63.988l-4.132 46.501H181.21v45.41h55.918l-5.271 58.894-50.647 13.67v47.244l93.094-25.801.683-7.672 10.671-119.551z"/></svg>