<svg xmlns="http://www.w3.org/2000/svg" viewBox="0 0 256 351" xmlns:xlink="http://www.w3.org/1999/xlink" preserveAspectRatio="xMidYMid"><defs><path id="a" d="M1.3 280.7l1.6-3L102 89l-44-83.4c-3.8-7-13-5-14.3 2.6L1.2 280.7z"/><filter id="b" width="200%" height="200%" x="-50%" y="-50%" filterUnits="objectBoundingBox"><feGaussianBlur stdDeviation="17.5" in="SourceAlpha" result="shadowBlurInner1"/><feOffset in="shadowBlurInner1" result="shadowOffsetInner1"/><feComposite in="shadowOffsetInner1" in2="SourceAlpha" operator="arithmetic" k2="-1" k3="1" result="shadowInnerInner1"/><feColorMatrix values="0 0 0 0 0 0 0 0 0 0 0 0 0 0 0 0 0 0 0.06 0" in="shadowInnerInner1"/></filter><path id="c" d="M134.4 149l32-32.8-32-61c-3-5.8-10.4-6.4-13.4-.6l-17.7 34-.6 1.8 31.7 58.6z"/><filter id="d" width="200%" height="200%" x="-50%" y="-50%" filterUnits="objectBoundingBox"><feGaussianBlur stdDeviation="3.5" in="SourceAlpha" result="shadowBlurInner1"/><feOffset dx="1" dy="-9" in="shadowBlurInner1" result="shadowOffsetInner1"/><feComposite in="shadowOffsetInner1" in2="SourceAlpha" operator="arithmetic" k2="-1" k3="1" result="shadowInnerInner1"/><feColorMatrix values="0 0 0 0 0 0 0 0 0 0 0 0 0 0 0 0 0 0 0.09 0" in="shadowInnerInner1"/></filter></defs><path fill="#FFC24A" d="M0 283l2-3L102.6 89.5l.2-2-44.2-83C54.8-2.6 44.3-1 43 7L0 283z"/><use fill="#FFA712" fill-rule="evenodd" xlink:href="#a"/><use filter="url(#b)" xlink:href="#a"/><path fill="#F4BD62" d="M135 150.4l33-33.8-33-63c-3-6-12-6-15 0l-17.6 33.7V90l32.6 60.4z"/><use fill="#FFA50E" fill-rule="evenodd" xlink:href="#c"/><use filter="url(#d)" xlink:href="#c"/><path fill="#F6820C" d="M0 283l1-1 3.5-1.4 128.4-128 1.6-4.4-32-61z"/><path fill="#FDE068" d="M139 347.6l116.4-65-33.2-204.4c-1-6.4-9-9-13.5-4.3L0 283l115.6 64.5a24 24 0 0 0 23.5 0"/><path fill="#FCCA3F" d="M254.4 282.2l-33-203c-1-6.3-7.6-9-12-4.4L1.3 282.6l114.2 64a24 24 0 0 0 23.4 0L254.4 282z"/><path fill="#EEAB37" d="M139 345.6a24 24 0 0 1-23.4 0L1 282l-1 1 115.6 64.5a24 24 0 0 0 23.5 0l116.4-64.8-.3-1.7-116 64.6z"/></svg>