<svg xmlns="http://www.w3.org/2000/svg" width="256" height="256" viewBox="0 0 256 256"><path fill="#5A676D" d="M112.717 66.344l-31.709 54.98-31.685-54.98 31.698-54.901z"/><path fill="#BCAE79" d="M144.432 11.445H81.039l31.697 54.901 63.41-.002z"/><path fill="#5A676D" d="M144.414 121.351l31.71-54.981 31.685 54.981-31.698 54.897z"/><path fill="#BCAE79" d="M112.699 176.248h63.397l-31.7-54.901-63.409.004z"/><path fill="#5A676D" d="M31.324 239.021v-33.617h-5.379v13.897H10.058v-13.897H4.631v33.617h5.427v-15.087h15.887v15.087zm15.575 0v-33.617h-5.428v33.617zm32.504-10.16c0-3.484-2.042-6.824-6.424-7.67v-.101c3.435-1.192 5.727-4.229 5.727-7.665 0-5.182-3.784-8.171-11.104-8.171-4.085 0-7.919.101-10.558.147v33.617c3.737.049 7.123.147 9.164.147 10.306.006 13.195-5.922 13.195-10.304zm-6.374-14.59c0 3.386-2.64 5.429-7.669 5.429-1.144 0-1.993 0-2.889-.05v-9.959a103.33 103.33 0 0 1 4.235-.102c4.78.002 6.323 1.943 6.323 4.682zm.647 14.691c0 3.388-2.339 5.776-7.269 5.776-1.742 0-3.089-.1-3.936-.25v-10.706c.749-.048 2.49-.048 3.039-.048 4.731 0 8.166 1.392 8.166 5.228zm31.472 10.059v-4.628H92.849v-10.459h11.702V219.5H92.849v-9.561h12.299v-4.535H87.419v33.617zm31.413 0l-8.862-11.703c-.845-1.096-1.892-2.391-2.838-3.586 5.478-.602 9.511-4.033 9.511-9.414 0-6.674-4.779-9.111-11.751-9.111-3.786 0-6.575.049-9.014.195v33.619h5.428V224.48h.249l10.458 14.541h6.819zm-7.868-24.102c0 3.336-2.64 5.581-7.021 5.581a30.2 30.2 0 0 1-2.639-.102V209.74a46.263 46.263 0 0 1 2.838-.102c4.531.003 6.822 1.594 6.822 5.281z"/><path fill="#BCAE79" d="M170.507 239.021v-33.617h-5.276v9.963c0 4.931.146 12.15.349 15.986-1.245-2.439-2.588-5.127-4.084-7.619l-11.104-18.329h-7.121v33.616h5.278v-11.304c0-4.782-.101-11.603-.299-14.892 1.046 2.242 2.239 4.632 3.735 7.072l11.502 19.123h7.02v.001zm35.897 0l-12.201-33.617h-6.023l-12.051 33.617h5.477l2.592-7.42h13.594l2.593 7.42h6.019zm-10.058-11.753h-10.757l3.784-10.406c.648-1.791 1.195-3.635 1.545-5.328h.098c.4 1.843.85 3.438 1.496 5.178l3.834 10.556zm32.811-17.28v-4.584h-23.902v4.584h9.212v29.033h5.428v-29.033zm23.343 29.033v-4.628h-12.299v-10.459h11.701V219.5h-11.701v-9.561H252.5v-4.535h-17.729v33.617z"/></svg>