<svg xmlns="http://www.w3.org/2000/svg" width="362.734" height="411.38" viewBox="428.571 100.62 362.734 411.38"><path fill="#E44D26" d="M791.305 100.62L758.26 470.819 609.717 512l-148.135-41.123L428.57 100.62z"/><path fill="#F16529" d="M609.938 480.523l120.031-33.277 28.238-316.352H609.938z"/><path fill="#EBEBEB" d="M545.697 221.716h64.241v-45.411H496.071l1.085 12.183 11.162 125.139h101.62v-45.41h-60.09zm10.235 114.617h-45.584l6.361 71.301 93.02 25.823.21-.058v-47.246l-.2.053-50.575-13.656z"/><path fill="#FFF" d="M609.781 313.627H665.7l-5.27 58.894-50.648 13.67v47.244l93.094-25.801.684-7.672 10.67-119.551 1.11-12.194H609.78zm0-92.022v.111H719.47l.912-10.207 2.068-23.021 1.086-12.183H609.781v28.204z"/></svg>