<svg xmlns="http://www.w3.org/2000/svg" viewBox="0 0 64 64"><title>Java logo</title><path d="M38.02 13.07S16.11 18.54 26.6 30.6c3.09 3.55-.81 6.75-.81 6.75s7.84-4 4.24-9.11c-3.43-4.73-5.97-7.07 7.99-15.17zM23.7 16.88C36.65 6.65 30 0 30 0c2.68 10.57-9.46 13.76-13.84 20.34-3 4.48 1.46 9.3 7.53 14.77-2.36-5.34-10.38-10.02.01-18.23z" fill="#e57125"/><path d="M15.2 49.49c-9.84 2.75 6 8.43 18.51 3.06a23.06 23.06 0 0 1-3.52-1.72 36.62 36.62 0 0 1-13.25.56c-4.18-.47-1.74-1.9-1.74-1.9zm17-5.36a51.7 51.7 0 0 1-17.1.82c-4.19-.43-1.45-2.46-1.45-2.46-10.84 3.6 6 7.68 21.18 3.25a7.59 7.59 0 0 1-2.61-1.61zm10.95 10.55s1.81 1.49-2 2.64c-7.23 2.19-30.1 2.85-36.45.09-2.28-1 2-2.37 3.35-2.66a8.69 8.69 0 0 1 2.21-.25c-2.54-1.79-16.41 3.51-7 5 25.49 4.17 46.51-1.83 39.89-4.82zm-8.78-15.56a20.42 20.42 0 0 1 2.93-1.57s-4.83.86-9.65 1.27a87.37 87.37 0 0 1-15.39.18c-7.51-1 4.12-3.77 4.12-3.77A22 22 0 0 0 6.3 37.61c-6.56 3.18 16.3 4.62 28.07 1.51zm2.88 7.77a1 1 0 0 1-.24.31C53.04 43 47.14 32.35 39.48 35a2.19 2.19 0 0 0-1 .79 9 9 0 0 1 1.37-.37c3.85-.76 9.4 5.23-2.61 11.47zm.43 14.75a94.76 94.76 0 0 1-29.17.45s1.47 1.22 9 1.7c11.53.74 29.22-.41 29.64-5.86.05.01-.76 2.07-9.47 3.72z" fill="#5482a2"/></svg>