<svg xmlns="http://www.w3.org/2000/svg" viewBox="0 0 64 64"><path fill="#e57125" d="M38 13s-22 5.5-11.4 17.6c3 3.5-.8 6.8-.8 6.8s7.8-4 4.2-9.2c-3.4-4.7-6-7 8-15zm-14.3 4C36.7 6.6 30 0 30 0c2.7 10.6-9.5 13.8-13.8 20.3-3 4.5 1.4 9.3 7.5 14.8-2.4-5.2-10.4-10 0-18z"/><path fill="#5482a2" d="M15.2 49.5c-9.8 2.7 6 8.4 18.5 3a23 23 0 0 1-3.5-1.7 36.6 36.6 0 0 1-13.3.6c-4.2-.5-1.8-2-1.8-2zm17-5.4a51.7 51.7 0 0 1-17 1c-4.3-.5-1.5-2.5-1.5-2.5-11 3.6 6 7.7 21 3.2a7.6 7.6 0 0 1-2.5-1.6zm11 10.7s1.8 1.5-2 2.6c-7.3 2.2-30.2 3-36.5 0-2.3-1 2-2.3 3.3-2.5a8.7 8.7 0 0 1 2.3-.3c-2.6-1.8-16.5 3.5-7 5 25.4 4.2 46.5-1.8 39.8-4.8zM34.3 39a20.4 20.4 0 0 1 3-1.5s-5 1-9.7 1.3a87.4 87.4 0 0 1-15.4.2c-7.5-1 4-3.8 4-3.8a22 22 0 0 0-10 2.4c-6.6 3.2 16.3 4.6 28 1.5zm3 8a1 1 0 0 1-.4.2c16-4.2 10-15 2.5-12.2a2.2 2.2 0 0 0-1 .8 9 9 0 0 1 1.4-.4c3.7-.7 9.3 5.3-2.8 11.5zm.3 14.6a94.8 94.8 0 0 1-29.2.5s1.5 1.3 9 1.8c11.5.7 29.2-.4 29.7-6 0 0-.8 2.2-9.5 4z"/></svg>