<svg xmlns="http://www.w3.org/2000/svg" viewBox="0 0 512 512"><circle cx="256" cy="256" r="256" fill="#6DA544"/><path fill="#FFDA44" d="M256 100.2L467.5 256 256 411.8 44.5 256"/><circle cx="256" cy="256" r="89" fill="#F0F0F0"/><g fill="#0052B4"><path d="M211.5 250.4c-15.5 0-30.4 2.4-44.5 6.8.6 48.6 40.2 87.8 89 87.8 30.2 0 56.8-15 73-38-27.6-34.4-70-56.6-117.5-56.6zM343.4 273c1-5.5 1.6-11.2 1.6-17 0-49.2-39.8-89-89-89-36.7 0-68.2 22.2-81.8 54 12-2.6 24.5-4 37.3-4 51.7 0 98.5 21.5 132 56z"/></g></svg>