<svg xmlns="http://www.w3.org/2000/svg" viewBox="0 0 544.3 544.3"><path fill="#EC168E" d="M292.2 536.6c-30-1-59-7-87-18-75.6-29.7-131-80.7-163-156l-2-5.6c-1-2-.4-4.4-1.8-6.4-.5-1.6-.6-3.2 0-5 3.2-2 5 1 6.8 2.3 18.8 13.6 37 28 55.7 42 47 35.3 93.8 70.8 140.7 106.3 14.5 11 29 21.8 43.4 33 3 2 6 3.7 7.2 7.3zM32.7 341c-9-9.3-17.6-19.2-24-30.6-7-11.8-8-23.2 1.5-34.6 10-12 9.4-25.6 5-39.6-2.8-9.2-6-18.4-8.2-27.8-2.8-12.3 0-23 8.2-32.4 6-6.8 12-13.4 19.5-18.6 11.8-8.5 15.7-20 16-34 .2-8.3-.2-16.8 1-25.2 2-14.6 10-24 23.4-29.3 7.7-3 15.7-4.8 23.8-5 18-.7 31.3-9.4 42.7-22.4 4.3-5 8.8-9.6 12.8-14.7 13-16.7 30.6-21.4 50.5-19.3 18 2 33.5 10 46.3 23-2.3 2.4-5.7.8-8.5 2-3.4 1-7 0-10.5 1-3 .7-6.3.5-9.3 1.4-3.5 1-7.2 1.2-10.7 2-4.2 1.3-8.6 1.8-12.8 3-4.7 1-9 2.8-13.6 4.3-4.6 1.6-9.3 3.2-13.7 5.2-5.6 2-10.8 4.7-16 7.4-5.8 2.7-11.3 6-16.7 9.4-4.7 3-9.5 6-14 9.4-3.7 2.5-7 5.5-10.6 8.4-4 3-7.5 6.5-11.4 9.6-4 3.8-7.8 7.7-11.6 11.6-3 2.5-4.7 6-7.5 8.6-4.5 5-8.4 10.4-12.5 15.8-3.2 4.6-6.2 9.3-9.3 14-3 5-6.2 10-8.7 15.5-2.6 5-5.3 10.2-7.5 15.5-10.7 24.6-17.4 50.3-20.7 76.8-3.5 26.8-1.3 53 6.3 79 1 3.3 3.4 6.7 1 10.5z"/><path fill="#EB0B8D" d="M336.7 534.6c-11 2-21.8 2.6-32.8 2-12.3-8-23.8-17.2-35.4-26l-81-61.3c-47.7-36-95.5-72-143-108.3-2.7-2-5.8-3.4-8-6-2-8.8-1-17.6-.7-26.4 2-3.8 4-1.3 5.8 0 14 10.7 28 21 42 31.5 27.2 21 54.7 41.6 82 62.4l167 126.3c2 1.4 5.2 2.3 4 6z"/><path fill="#512C86" d="M37.2 307c-.2 9.6-1 19.2 1 28.6 2 3 1.6 6.3 1 9.6v5.2c.5 1 1 2-1 2-2.2-3.5-2.7-8-5.5-11.3-.5-7.2-3.7-13.8-5.3-20.8-8.2-35.7-5.4-71 3.7-106 3.7-14 8-27.6 14.4-40.6 4 .5 3.4 3.8 3.7 6.4 1.6 16 3.6 32 7.7 47.4.2 2-.6 3.8-1.4 5.6l-2.6 5.5c-1 1.5-1.5 3-2 4.7-2 4.8-3.7 9.6-5 14.6-.8 3-2 6-2.4 9.2-.8 3.5-1.5 7-2 10.6-.6 4.3-1.3 8.5-1.7 12.8 0 4-1.6 8.2-1 12.4 0 1.5-.2 3-1.4 4.3z"/><path fill="#E60A8D" d="M37.2 307v-4.3c.6-.7 0-2 1.5-2.4 3 .2 5 2.3 7.3 4 41 30.8 82 61.7 123 93 2 1.5 4.5 2.5 6.6 4 5 5.6 9.4 11.7 14.7 17 14 13.3 29.7 24.2 47.7 31.6 4-.5 6 3 8.7 4.8 1.8 1 3.3 2.6 5 4 11.4 9 23.6 16.8 36.6 23.3 2.2 1.2 4.4 2.4 5.8 4.5 2 3.4 5.3 5.2 8.2 7.4 14.5 11 29.4 21.7 43.7 33 1.5 1.4 4.8 2 3.4 5.6-4 1.7-8.4 2-12.7 2-1.7-4.6-6.4-6.2-10-9-32.4-24.6-65-49-97.7-73.7l-54.5-41.3-102.7-78-34.6-25.6z"/><path fill="#EB0F8E" d="M39 345.2c-1.5-3-.8-6.4-1-9.6 7.7 3.2 13.3 9.2 19.7 14 25.5 19 50.8 38 76 57.2l111 84c18 13.7 36.3 27.3 54.5 41 1.7 1.5 4 2.3 4.7 4.8H292L191.7 460 121.2 407c-25.6-19.3-51.2-38.7-77-58-1.5-1.3-3.3-2.4-5-3.6z"/><path fill="#D5128C" d="M389.8 71.8c17 10.2 32.5 22.3 46.4 36.4 19.5 35.5 11 81.7-25.6 106.4-3.8 2.6-7 6.8-12.6 4.6-3.2 0-6.4.3-9.5-1-.2-3.2 2.5-3.4 4.4-4.3 24.4-11.5 40-30 43.5-57 5-37.4-18.8-70.4-53.7-76.6-47.8-8.4-80.7 30.4-81 66.5 0 18.6 4.6 35 17 49 1.5 1.7 3.4 3.5 2 6.2-4-1-8-2-11.7-4-9.3-10.7-14-23.5-16-37.4-6-41.8 22.7-85.5 71-91 8.8-1 17.2 1 25.8 2z"/><path fill="#EB0B8D" d="M293.3 487c-9-6.7-20-10.5-29-17.5l-13.4-10c-4-7.6-9-14.3-13.8-21.2-11.5-16.8-22.8-33.6-34.4-50.2-.6-.7-1-1.8-1.7-2.6-1-2 .2-4.2-.7-6.3-.4-3.6 1.7-1 2-.5 5 7.6 12.4 12.8 18.7 19 13.8 13.3 29.3 24.5 45 35.5-.3 1.8 1 3 2 4.2 10 15 20.3 30.2 30.7 45.2 1.4 2 5 4.5 1 7.5-2.8.2-4.6-1.3-6.4-3z"/><path fill="#C9148C" d="M287 189.7c-5-1.3-9.4-3.4-13.8-5.6-3.5-7-4.8-14.6-5.6-22.3-3.5-33 7-61 28.7-85.4C308 63 323.3 54.5 340 48.7c1.7-.6 3.5-1 5.2 0 4.8 1.5 9.5 3.6 14 6 0 4-3.3 3.8-5.6 4.4-10.5 2.7-20.7 6-29.8 12-25 17-39.4 40-43 70.2-1.7 14.2 1 27.6 5.3 41 .8 2.4 2.7 4.8 1 7.5z"/><path fill="#BE198C" d="M262.4 179.4c-2.4-1-4.8-2-7.2-2.8-1.8-.5-3.6-.7-4.2-3-3.6-15.7-3-31.5 0-47.3.3-2.3.7-4.5.4-6.8-.3-2.8 1.2-5 2.3-7.3 3-6 6.2-11.7 7.6-18.2 11.3-22 27.3-40 48.7-52.7 2-1.2 4-3.2 6.6-2 4.8.7 9.5 2 14 4-.6 2.4-2.4 3.5-4.3 4.4-22.5 11-40 27.5-51.7 49.6-8 15-12 31-12.7 48-.4 9-.2 18 1.7 27 .5 2.2 1.7 5-1.3 7z"/><path fill="#CC128C" d="M44.6 257.3c1.2-5.2 2.8-10 5.2-14.8 2-.7 3.4.7 4.8 1.7 30.5 23.3 61.2 46.3 91.8 69.5l.7.8c.2 2.4.2 4.8.2 7.2 1 2 0 4.4.7 6.5 0 1.4 0 2.8.2 4.3-3.7.7-5.8-2-8.2-4C111 307 82 285 53 263c-2.7-2-5.4-4-8.4-5.5z"/><path fill="#DB108C" d="M369.3 215c-10.5-1-20.6-4-30.6-7-15.4-8.5-25.7-21-31-37.8-7-22.5-3.3-43.4 11-62 14.7-19.4 35-28.7 59-25.4 28 3.6 46 20.2 54 47 11.8 39.4-17 84.3-62 85.4l-.4-.2z"/><path fill="#DF0E8C" d="M38.3 290c.4-4.2.4-8.5 2-12.6 3-1.7 5 1 6.8 2.3 27.5 20.6 54.7 41.2 82 61.8 8.5 6.5 17.3 12.7 25.6 19.6l8.6 20c-3.3 1.8-5.3-1-7.4-2.5L114 347c-23-17.4-46-34.6-68.8-52-2.2-1.8-4.6-3.3-7-5z"/><path fill="#D8118C" d="M320.8 202.2c-1-4.4-4.8-6.8-7.2-10.2-8.6-12.3-13-25.8-13-41-.2-17.2 4-32.8 15-46C328.8 88.5 345.4 79 367 78c21.7-.7 39.4 6.5 53.7 22.3 11 12 16.8 26.6 17.6 43 .8 14.3-1.8 28-9.3 40.4-8.7 14.3-20.5 25-36.2 31.5-1.6.6-3.6.7-4.3 2.7-4.7 0-9.3-.7-13.8-2.2 2.4-2 5.5-2.3 8.3-3 44.8-10.7 67-65.6 37.4-105-22-29.2-59.7-33.6-87.8-12.8-33.8 24.8-37.3 73.2-7 103 2.2 2 6.5 2.8 5.8 7.2-3.7-.5-7.2-1.6-10.6-3.2z"/><path fill="#CC138C" d="M287 189.7c-2.2-7.4-4.7-14.8-6.4-22.3-4.3-18.8-1.5-37 6-54.4 12.7-28.5 34-47.3 64.7-54.8 2.7-.7 6.2 0 7.8-3.4l14.7 7.8c-.5 2.8-3 2-4.6 2.4-8.3 1.3-16.6 2.2-24.7 5-32.3 11-55.7 44-56 78-.2 13.8 3 26.5 8.4 39 1 2 2.8 4.3.8 6.8-3.7-1-7.3-2-10.6-4z"/><path fill="#C3168C" d="M262.4 179.4c1.5-4.8-.5-9.4-1-14-2.8-21 0-41 8-60.4 4.3-11 10.5-20.8 18-29.4C298 64 310 53.6 324.5 47c2.2-1 4-2.5 6-3.7 5.2 1 10 3 14.8 5.4-14 3.7-26.4 10.4-37.7 19.2-11 8.3-19.3 19.2-26 31.3-7 12.8-11 26.6-12.7 41.3-1.4 13.5 0 26.5 4 39.3.5 1.2.3 2.7.4 4l-10.8-4.6z"/><path fill="#D2128C" d="M44.6 257.3c2-1 3.3 0 4.7 1.2l63.8 48c9.6 7.2 19 14.6 28.5 21.8 2 1.6 4.5 2.8 6.7 4.2l3 15.8c-2.8 0-4.7-2-6.8-3.6-33.2-25-66-50-99.3-75-1-.8-2.2-1.6-3-3 .4-3.3 1.6-6.3 2.6-9.4z"/><path fill="#D9108C" d="M42 266.8c7.6 3.5 13.6 9.2 20 14 28 21 56 42.3 83.8 63.5 1.8 1.3 4 2 5.4 4 1 4.3 2.3 8.5 3.4 12.8-7-2.2-11.7-7.5-17.3-11.6l-64-48-28-21.5c-1.5-1.3-3-2.4-5-2.6-.2-3.7.8-7.2 1.8-10.6z"/><path fill="#BD1A8C" d="M149.4 284c0 3-.4 6.2-1.3 9.3-2.3.8-4-.8-5.5-2-28-21-55.8-42.2-83.7-63.3l-1-1.3c-.7-3.8 2.6-6 4-8.8.8-1 1.7-2 3-2.4 4.3 1.2 7.2 4.4 10.5 7l70.4 53c2.8 2.2 5.3 4.3 3.7 8.4z"/><path fill="#512C87" d="M493.4 209.5c.3-16.6 0-33-5.2-49-1.4-4.5-2.6-9-5.6-13.8 20 15 35.6 54 30.7 93.7-2 3-3.7 1.4-5-.4-5-7-10-14.4-14.6-21.8-1.6-2.6-1-5.7-.3-8.7z"/><path fill="#AA218D" d="M467.8 474.3c-3.5 3.6-7 7-11.3 9.6-3.4.4-6.8 0-10 2-2.6 1.4-4.3-.8-5.7-2.7-3.8-5-7.3-10.4-10.8-15.6l-33.7-49.4c-1.2-1.8-3-3.5-2.4-6l11.4-5c2.4 1 3.2 3.3 4.5 5.2l41 60.2c4 5.5 4 5.5 10 1.6 2.2-1.3 4.5-3 6.8 0z"/><path fill="#DF0E8C" d="M299.7 451.2l13.7 5.3c2 1 3.2 2.8 4.3 4.6 7.5 11.8 15.8 23 23.4 34.6 1.7 2.4 3.6 4.8 4 8 .5 2.2 2.4 3.4 4 4.6 6.3 4.6 12.3 9.4 18.4 14 1.8 1.5 4.6 2.7 3.2 6l-12.7 3c-13.4-9.3-26-19.6-39-29.3-1.7-1.3-3.5-2.7-2.8-5.2.4-.4.8-.7 1.3-.7 3.8.6 7.3 2.3 12 2.8-2.4-4.8-5-8.5-7.8-12-6.7-9.4-12.6-19.3-19.4-28.5-1.5-2-3.4-4-2.6-7z"/><path fill="#A9218D" d="M160 248l-3.5 8.2c-2.6.7-4.4-1-6.2-2.4-23.3-17.7-46.7-35.2-70-53-1-.7-2-1.5-2.3-2.8.8-3.8 3.6-6 6.6-8.2 2.4-.3 4 1 5.8 2.2 22 16.7 44 33.3 65.8 50 2 1.3 5 2.3 3.7 6z"/><path fill="#E30C8C" d="M38.3 290c2.6-1.2 4 1 5.4 2.2L147 370c5 4 9.8 8.8 16.2 11l7.5 12.8c-3.3 1.8-5.4-.7-7.4-2.2-12-8.8-23.8-17.7-35.5-26.6-28-21.3-56-42.5-84.2-63.6-1.7-1.3-3.3-3-5.5-.7 0 .7-.4 1.4-.7 2-.7-4.3.8-8.4 1-12.6z"/><path fill="#762A8A" d="M456.2 313.4l7.2-11.8c2-.8 3 .8 3.8 2 13.8 20 27.3 40.2 41.2 60.2.3.4.5 1 .7 1.5-2.2 3.8-4.8 7.5-8 10.6-2.4.6-3.2-1.3-4-2.7-5-7.5-10.5-14.5-15-22.2-8.7-12.5-17.6-24.8-25.8-37.6z"/><path fill="#8B288C" d="M199.2 202.3l-9.4 7.5c-2.5 1.2-4.4-.3-6.2-1.7-18.5-14-37.3-27.8-55.6-42-1.7-1.4-3.4-2.7-3.6-5 0-1 .6-1.5 1.3-2 3-1.5 6.2-3 9.6-3.4 1.8-.2 3.4.4 5 1.5 19.2 15 38.5 29.6 58 44l1 1.3z"/><path fill="#B91B8C" d="M149.4 284c0-2.7-.7-4.4-3-6.2-20.2-15-40-30-60-45L64.6 216c-.4-3 1-5.3 3.4-7.2.8-.4 1.5-.6 2.3-.7 3.2 1 5 3.7 7.6 5.6 23.8 17.6 47.3 36 71 53.6 1.3 1 2.4 1.7 3.3 2.8l-3 14z"/><path fill="#B01F8D" d="M394 412.2c12.8 19 25.6 38 38.5 56.8l10 14.2c1.4 2.4 3.4 2.7 5 1.2 3-3 6-2 9-.5-2.5 2.6-5.3 4.8-8.5 6.5-3.6-3-7.2-1.3-10.7.3-.5 0-1 0-1.5-.3-5.2-4.6-8.2-11-12-16.5l-36-52.6c-1.2-1.8-3-3.5-2.3-6 2.8-1.2 5.6-2.2 8.4-3.2z"/><path fill="#A5228D" d="M160 248c0-3.3-3-4-4.8-5.3-22-17-44-33.6-66-50.3-1.4-1-2.8-1.7-4.4-1.8-.7-1 0-2 .5-2.8 1.8-1.8 3.3-4 6-4.4 2 0 3.7 1.2 5.2 2.3 22.2 16.4 44 33.4 66.2 50 1 .6 2 1.4 2.5 2.6L160 248z"/><path fill="#C1178C" d="M58 226.5c10.5 6.5 20 14.4 29.7 21.7 18 13.6 36 27.5 54.2 41.2 1.8 1.5 4 2.6 6 4 .2 3.2.2 6.4-.7 9.6-4.2-1.6-7.3-4.8-10.8-7.4-26.8-20.3-53.5-40.8-80.5-60.8-.7-.5-1.4-1-1.8-1.8.6-1.5 1.2-3 2-4.4.5-.7.2-2.4 2-2z"/><path fill="#E60A8D" d="M317.6 496.6h-1c-6.4-.7-12.5-2.2-17-7.4 2-2 0-3.3-1-4.5-10.6-15.8-21.4-31.6-32.3-47.3-1-1.5-2.6-2.7-.4-4.4l21 12c11 15.5 21.3 31.4 32 47 1.3 1.7 3.4 4.5-1.4 4.6z"/><path fill="#D0138C" d="M398 219.2c4.3 1 6.6-2.3 9.7-4.2 11-7 19.6-16 26.2-27 9.7-16 12.4-33.5 10-52-1-8.3-3.8-15.8-7-23.2-.6-1.5-.8-3-.8-4.6 4.5 3.5 8.4 7.6 11.8 12.3 5.7 15 6 30.7 2.3 46.3-5 22.4-17 40.4-36.3 53.3-5.4.2-10.7.7-16-.8z"/><path fill="#A6228D" d="M461.6 475.4c-1 .8-2.4 1.4-3.5 2.3-2.3 2.3-4 1.7-5.7-1l-45-66c-.8-1-1.3-2.2-2-3.3l8.6-4.2c10 13 18.5 26.8 27.8 40.2 6 9 12.4 18 18.3 27 1 1.5 3 2.7 1.6 5z"/><path fill="#91278C" d="M125 161c6 7 14.2 11.8 21.5 17.5 12.4 9.7 25.2 19 37.7 28.5 1.7 1.3 3.5 2.5 5.6 2.8L182 217c-2.4.7-3.8-1.3-5.3-2.5C158 200 139 186.3 120.5 172c-2-1.7-4.3-3.2-5.4-5.7 0-1.2.5-2 1.3-2.8 2.8-1.2 5-4 8.6-2.6z"/><path fill="#AF1F8D" d="M78.4 198c23.5 17.8 47 35.5 70.7 53.2 2.5 1.8 5 3.3 7.5 5-1 2.5-1.8 5-2.7 7.6-2.2 1-3.7-.5-5.2-1.6-25.2-19.2-50.8-37.8-75.6-57.4-.8-2.5 1.3-3.6 2.4-5.2 1-.7 1.4-2.2 3-1.6z"/><path fill="#D9108C" d="M370.6 528c-2.6-6-9.3-7.6-13.4-12-1.6-1.8-3.8-3.2-6-4.3-5-2.8-6.7-8-9.6-12.7-8.3-13.2-17.3-26-26-39-.8-1-1.4-2.2-2.2-3.5l14.8 4.3c9 14.4 18.8 28 28.3 42 3 4.5 8 7 12 10.2 3 2.4 6.3 4.6 9.3 7 1.6 1.3 3.7 2.3 3.3 5l-10.4 3z"/><path fill="#AA218D" d="M272.2 31.7l6.3.3c2.5.4 3 1.7 1.6 3.7-.6 1.2-1.8 2-2.8 3-14 12.8-25.5 27.6-34.2 44.5-1 2-1.8 4.3-4.6 4.7-.8 0-1.5-.2-2.3-.4-2-.7-4.3-1.4-6.6-1.8-1-.3-2-.8-2-2C235.2 66.5 246 51.3 258 37c4-4.4 8-7.2 14.2-5.3z"/><path fill="#BA1B8C" d="M316.6 39.2c-16.2 8.5-30 20-41 34.5-5 6.5-9 13.5-13 20.5-2.8 1.6-5-.5-7.6-.8-1-.4-2-.8-2.3-2 3.8-11.7 11-21.3 18.8-30.3 7.6-8.8 16-17 26-23.3 1.6-1 3-3 5.5-1.8 4.8.2 9.2 1.6 13.6 3.2z"/><path fill="#83298B" d="M212.2 194c-2 1.7-4.2 3-6.7 4-2.6 1.3-4.4-.3-6.2-1.7-17-12.5-33.3-25.7-50.4-38-2.2-1.6-4.3-3.3-5-6-.8-13 .8-25.7 3-38.3.2-2 1-3.8 2.8-5 4.6.7 3.2 5 4.5 7.6-2.6 9.6-2 19.5-3.3 29.3-.6 5 3 4.5 6 4.2 1 0 1.7.2 2.4.6 1.7 4.3 5.4 6.7 9 9.3 14 10.5 28 21.2 42 32 .7.5 1.4 1 1.8 2z"/><path fill="#722B89" d="M509 365.3c-3.4-2.4-5.3-6-7.5-9.3l-35-51c-.8-1.3-1.4-3-3-3.4l5.6-10.3c6.3 7.2 11.5 15.2 16.7 23.2l.3 1c2.8 2.5 5 5.5 6.8 8.6 7 11.2 15.4 21.3 21.7 32.8-1 3.3-3.8 5.5-5.4 8.5z"/><path fill="#C5168C" d="M54.2 233c6.8 2.4 11.7 7.6 17.2 11.7 20 14.7 39.7 29.6 59.3 44.8 5.6 4.3 12 8 16.6 13.5 0 1.7 0 3.4-.2 5-3 2.2-4.8-.5-6.8-2-19.6-14.4-38.7-29.4-58.3-44-9-6.4-17.4-13.3-26.2-19.8-1.5-1-3.4-2-4-4 .3-2 1.3-3.6 2.4-5.2z"/><path fill="#D1138C" d="M389.8 71.8c-3.3 3.2-7 .5-10 0-14-2.6-27 .3-39.4 6-26 11.6-40.8 32.4-45.8 60-3.5 19.5 1.3 37.6 11.4 54.4 1 2 3 3.4 3 6-2 0-3.6-.8-5.2-1.8-8.4-9.5-12-21-14-33-4.4-27.5 3.5-51.7 22-71.8 14.4-15.6 32.8-24 54.3-25.2 5.8-.3 11.7-1 17.3 1.4 2.4.8 4.6 2.2 6.5 4z"/><path fill="#99258C" d="M178 221.3l-5.4 6.4c-2.2.8-3.6-.7-5-2-20-15-40-30-60-45.3-2-1.5-4.7-2.6-5.5-5.5.5-3.2 3.2-4 5.3-5.4 1-.5 2-.8 3-.5 21.2 17 43.3 32.7 64.7 49.4 1 .8 2.4 1.6 3 3z"/><path fill="#CC138C" d="M408.8 513.6c-3.4 2.8-7.5 4-11.7 5.4-7.2-4.6-14.4-9.7-21.6-14.6-6-4.3-9-12-13.5-18-3.7-4.7-6.8-10-10-15-1.3-1.7-3.3-3.7-2-6 1.4-2.2 4-.7 6-1 .7-.2 1.4 0 2 .4h4c5.2 6 9.5 12.8 14 19.4l9 13.4c2.3 3 5 4.7 8.7 5.5 6.3 1.4 11.2 5.4 15 10.6z"/><path fill="#D1138C" d="M358 464.8h-1.6c-2 .3-4.2-1-5.4 1-1.3 2 1 3.5 2 5l19.7 29c2.2 3.2 5 5 8.4 7 6 3 11.8 7 16 12.2-2.8 2-6.2 2.8-9.5 3.8-10.2-7-21-13.4-27.8-24.4-6-9.7-13-18.8-19.2-28.4-1.4-2-3.7-4-1.7-7l19 1.8z"/><path fill="#A2238D" d="M461.6 475.4L443.2 448l-28-41.3c-.7-1-1-2.3-1.3-3.5l6.2-3.2c2.7 1 3.6 3.8 5 6 4.5 6.5 8.8 13 13.8 19.3 8 13.7 17.8 26.3 26.4 39.6 1.5 2 3.2 3.7 6.2 1.8 1.2-.8 2.6-1 3.8 0-2 3-4.7 5.4-7.6 7.5-2.3-1-4.3-.6-6.2 1z"/><path fill="#EB108E" d="M201 385.4c2.6 1.5 4.3 3.6 6 6l26 38.8c5.7 8.3 11.5 16.5 17 24.8 1 1.3 2.8 2.6 1 4.5l-13-9.6c-3-5.3-7.7-8.7-11.4-13-11.5-13.4-20.8-28-24.7-45.3-.6-2-.6-4.2-1-6.3z"/><path fill="#D1138D" d="M383.3 67.8c-18-1-35.3.5-51 9.7-15.8 9-27.8 21.7-35 38.8-4.8 11.4-7.4 23-7.2 35.3.4 14.7 4.6 28.3 12 41 .7 1 1.2 2.5 1.8 3.8-2.2-.8-4.5-1-6.3-2.6-.7-6-4.2-10.7-6-16.2C282 148 287 120.8 305.7 96 319 78.7 337 69 358.3 65c5-1 10.4-.6 15.4-2.2 3.7.8 6.6 3 9.6 5.2z"/><path fill="#A1238D" d="M165.2 238.3c-7.4-3.7-13.4-9.4-20-14.3-16.4-12.2-32.7-24.8-49-37-1.5-1.2-3-2.7-5-2.8-.4-.2-.5-.5-.5-.8v-.5c1.6-2 3.5-3.2 5.8-4 2.3-.3 4 .8 5.8 2 22.2 17.2 44.8 33.7 67 51-.8 2.4-2.5 4.3-4 6.3z"/><path fill="#B41D8C" d="M73 204.4c7.2 3.5 13 9 19.3 13.6 14.3 10.4 28.3 21.3 42.4 32 6.2 4.8 12 10 19 13.8l-1.4 6.2c-7-2.6-12-8-17.6-12-19.7-14.7-39.2-29.5-58.7-44.3l-6-5c-.5-2.7 1-3.7 3-4.3z"/><path fill="#BE198D" d="M434.2 500c-3.6 2.8-7.5 5-11.7 7-4-3.4-7.7-7.3-13.8-6.2-2.5.4-4-2-5.3-4-5.7-7.6-10.7-15.6-16-23.5-2.7-4-5.4-8-11-7.5-.8 0-1.4-.5-1.8-1l21.4-2c5.2 5 8.7 11.4 12.8 17.2 2.3 3.3 4.6 6.6 6.6 10 2.3 4 4.7 5.6 9.4 4 4.5-1.7 8.2 1 9.4 6z"/><path fill="#CD138C" d="M414 220c.7-3.5 4.2-4.6 6.4-6.5 23-19.5 32-44.6 30.6-74-.3-6.4-3.2-12.5-3-19 3.6 3.5 7 7.2 9.3 12 2.7 26.2-1.8 50.7-18.4 72-2.7 3.5-5.8 6.4-8.7 9.4-1.5 1.4-3 3-2.2 5.3-4.5 1.5-9.3 1-14 .8z"/><path fill="#612C89" d="M502 300.7l10.4-14c4.4 4.3 7.4 9.7 11 14.7 3.2 4.8 6.2 9.7 10 14-1.8 6.4-3.8 12.5-7 18.3-2.3.8-3.5-1-4.5-2.5-7-9.5-13.5-19.2-20-29-.3-.4-.3-1 0-1.5z"/><path fill="#7C2A8A" d="M456.2 313.4c1 .8 2.5 1.5 3.2 2.7 8 11.5 15.6 23 23.4 34.5-.3 3.3-1.7 5.6-5.6 5-1.6 1-3 1.7-4.7 2.5-2.2.7-3.2-1-4.3-2.3-6.8-8.8-12.3-18.5-19-27.4-.8-1.3-1.4-3-.3-4.5 2.3-3.5 4.8-7 7.2-10.4z"/><path fill="#CA138C" d="M428 219.3c-4.8-.2-3-2.3-1-4.2 8-7 14.6-15 19.4-24.6 6.3-12.7 10.3-26 10-40.4 0-5.8-1-11.8 1-17.6 2.7 3.7 6 7 7.8 11.4-1.7 9.5-1 19.3-3.6 28.7C457 188 450 202 439.3 214.3c-1.7 2-3.4 4-6.2 4.7l-5 .3z"/><path fill="#7B2A8A" d="M229 185.4l-11 5.2c-15-11.2-30-22.6-44.8-34-1.8-1.4-4.8-2.6-2.4-5.8 1.3-.7 2.7-.8 4-1 2.4 0 4.7 0 7 .3 3 .8 6 .6 8.8 2.3.7 2.8 3 4.2 5 5.8l29 22c2 1.3 4.2 2.6 4.4 5.4z"/><path fill="#D9108C" d="M331.4 205.4c-3.6-5.6-9.2-9.4-13.3-14.7-9.3-12-14-26-14-40.6.6-32.7 21.6-60.8 55-67.2 33.6-6.3 65 16.5 73 47.7 9.7 37.5-13 74.8-49.2 83.5-2.7.6-5 2.5-8 2-2 0-3.8.2-5.5-1 9.3-2.3 19-3.2 27.7-8 20-11 32-27.4 35-50.2 3.6-28-7-49.8-30.4-64.6-17.2-10.8-36.2-11.8-55-3.8-23.5 9.8-37 28-40.2 52.7-3 23.2 4.4 43.4 22.8 58.8 3.2 2.7 7.4 4.2 9.5 8-2.4-.7-5-1-7.3-2.4z"/><path fill="#C8148C" d="M433 219c18.3-19 29.7-41 29.7-68 0-2.6.3-5.2 2.5-7.2 3 3.4 4 7.8 6 11.8 1.4 4-.4 7.6-1 11.3-2.6 16-9 30.7-18.7 44-1.4 1.8-2.6 3.7-4.7 4.8-4.4 2-9 2.7-13.7 3.2z"/><path fill="#D5128C" d="M338.8 463c-.2 3.3 2 5.5 3.7 8 5.8 8.7 12 17.2 17.7 26 5.4 9 13.6 14.6 21.6 20.5 2 1.5 4 3.2 5.7 5.3L381 525c-5.6-6.4-13-10.7-19.6-15.6-4.7-3.4-7.4-8-10.5-12.3-7.3-10-14-20.2-20.8-30.4-1.3-1.8-2.3-3.5-2-5.8l10.6 2.2z"/><path fill="#C8148C" d="M51.8 238.2c11 6.7 20.5 15.2 30.7 22.8 20.4 15.2 40.5 30.5 60.7 46 1.3.8 2.5 1.2 4 1v6.5c-7-2.3-11.8-7.6-17.3-11.7-21.5-15.8-42.6-32-64-48L50 242.6c0-1.7.8-3 2-4.3z"/><path fill="#692C89" d="M502 300.7c7.2 8.7 12.7 18.7 19.5 27.8 1.5 2 2.7 4 5 5.2-1.6 5.2-4.2 10-7 14.6-2.2.2-3-1.7-4-3-7.4-10-13.7-21-21.3-30.8-1-1.3-2-2.6-.8-4.3l8.5-9.5z"/><path fill="#E60A8D" d="M38 300.7c.2-2.5-.6-5.6 3.8-2.3 35.8 27.2 71.7 54.2 107.6 81.3l16 12c1.6 1 3.2 2 5.3 2 2 2.4 4 4.7 5 7.6-3.2.6-5.4-1.4-7.6-3l-85-64.5c-12.4-9.5-25-19-37.4-28.2-2.4-1.8-5-3.3-7.5-5z"/><path fill="#95268C" d="M178 221.3c-7.3-3.5-13.2-9-19.6-14-14.2-10.2-28-21-42-31.6-2.4-1.8-4.6-3.8-6.3-6.3.7-3 2.4-4.2 5.4-3.2l66.7 51-4 4z"/><path fill="#9D248D" d="M169.3 232c-6.7-2.2-11.4-7.3-16.8-11.3-16.8-12.6-33.4-25.4-50-38-1.8-1.4-3.6-3-6.2-2.7-.5-2.5 1.5-3.4 3-4.8 1-.5 2-1.2 3.4-.5l31.5 24.5 35.2 26.7c1 .6 2.2 1 3.2 1.7-.5 2-2.3 2.7-3.3 4.2z"/><path fill="#B01E8D" d="M238.2 86.8c5-2.8 5.8-8.5 8.4-13 8.4-14 18.8-26 30.8-37 1.5-1.5 4-2.4 1-4.8 4.4.3 8.7.4 12.8 1.8 1.5 3-1.2 4-2.8 5.4-14 11.3-25.8 24.8-35 40.4-2 3.5-2.8 7.7-6.5 10-.8.4-1.6.4-2.4.3-1.8-.4-3.6-.7-5.4-1.3-.7-.4-1.3-1-1-2z"/><path fill="#572D89" d="M493.4 209.5c-.6 4.4 1 8 3.6 11.6 4.2 5.7 8 11.7 12 17.6 1 1.7 2 3.5 4.3 1.8-.6 8-2 15.6-4.2 23.2-2 .4-3.2-1-4.2-2.5-5.2-7.6-11-15-16-22.8l4.6-28.7z"/><path fill="#7F2A8B" d="M170.5 151.4c1.8 5 6.7 6.4 10.2 9.2 11.7 9.3 23.7 18 35.7 27 1 .8 1.7 1.7 1.7 3-1.6 1.6-3.6 2.6-5.8 3.3-8-4-14-10.3-21.2-15.3-9.6-6.8-19-14-28.2-21-2-1.6-5-2.8-3-6.3 3.6-2.3 7-2.3 10.7 0z"/><path fill="#87288B" d="M145 153.5l55.7 42.4c1.4 1 3 2 4.8 2-2 1.8-4 3.3-6.3 4.3-8.5-4-15.2-10.5-22.7-16-12.6-9-24.8-18.8-37-28.4-1.3-1-2.5-1.3-4-1.3-.2-2 1.4-2 2.6-2.5 2.4-.4 4.6-1.7 7-.7z"/><path fill="#BA1B8D" d="M397.8 458.6c-2.4 0-5 .2-7.2-1-7.6-9.7-13.8-20.4-21-30.4-1.6-2-3.3-3.8-4.5-6 4-1.4 7.8-2.4 11.8-3 3.3-1 4.4 1.5 5.7 3.4 7 10 14 20.2 20.8 30.6 1.2 2 3.5 4 2 6-1 1.8-4 .6-6 .8-.5 0-1-.2-1.5-.4z"/><path fill="#A6228E" d="M272.2 31.7c-6-1.3-9.8 2.3-13.3 6.5-9.4 11.2-18 22.8-25.3 35.5-2 3.3-1.6 8.2-6 10-2.7 1.4-4.7 0-6.5-1.7-.5-4.5 2-8 4-11.6 6.2-11.7 13.4-22.6 22.2-32.5 1-1.3 2-2.5 2.6-4-1.8-1.7-3.8-.5-5.6-1-.8-.3-1.5-.6-2-1.3 2.7-2 5.8-.5 8.7-1 7 .8 14.3-.7 21.2 1z"/><path fill="#BA1B8C" d="M434.2 500c-3-4.4-6.2-7.2-11.7-4-2 1.2-4.3.7-5.5-1.4-6.7-10.8-14.8-20.6-21-31.8 2.8-.6 5.5-1.4 8.4-1.2 3.4-1.5 5.2.8 6.8 3 5 7.3 10 14.4 14.8 21.7 1.5 2.3 3 5 6.6 4 1.2-.3 2.4-.6 3.6 0h1c3-.3 5 .6 5.4 4-3.2 1.3-5 4.6-8.4 5.7z"/><path fill="#8C288C" d="M500.7 438.3c-2.4 4-5.3 7.4-8.5 10.6-2 1.3-3-.2-4-1.4-6.8-9-12.6-18.5-19-27.8-.5-.7-.6-1.7 0-2.5l13.6-6.3c6 9.2 13.3 17.3 18 27.3z"/><path fill="#C4168D" d="M374.6 464.7c6.7-1.3 10.4 2.4 13.8 7.7 5.2 8.2 11 16 16.5 24.3 1.3 2 2.8 3.6 5.4 3 6.4-1.4 9.5 2.4 12 7.3-2 1.5-4 2.8-6.4 3.3-3.7 1.6-5.4-2-8-3-.4-.4-.8-.6-1-1-1.3-1-2.6-2-4.3-2.2-1.4-.3-2.8-.7-4.2-1.3-4.2-2.5-6-7-9-11-5-7-9.6-14.6-14.7-21.7-1-1.5-2.5-3-1-5.2.2-.2.5-.3.8 0z"/><path fill="#B51D8D" d="M246.7 89c4.7-7.2 8.4-15 13.5-22 8-11.3 17.7-21 28.3-29.6 1.3-1 2.7-1.7 2.7-3.6 4 0 8 .8 11.8 2-6.6 3.3-12.2 8-17.6 13-13.6 12-24 26.4-32.3 42.3-.6.7-1.3 1-2.2 1-1.7-.6-4-.4-4-3z"/><path fill="#E30C8C" d="M317.6 496.6c4-1 1-3 .4-4.3-9.4-13.8-19-27.4-28.2-41.2-1.3-1.7-3.2-3.4-3-6l13 6.2c8.6 14.7 19 28.4 28.4 42.7.4.4 1 1 1 1.6.7 1.5 3.2 2.7 1.6 4.5-1.3 1.7-3 0-4.4-.4-3-1-6.3-.8-8.8-3z"/><path fill="#B51D8D" d="M436.2 490.2l-3 1c-3.3-1.5-4.6-4.8-6.4-7.6-5-8-10.6-15.6-16.3-23.2-4-2.5-8.6.2-12.7-1.8h7c-.5-3.5-2.5-5.5-4-7.7-6.7-10-13.5-19.8-20-29.7-1-1.5-1.8-3-4-3l8.7-3c13.5 20 27 40 40.7 60l10 15z"/><path fill="#BE198D" d="M365 421.3c4 .6 4.7 4.5 6.6 7 6 8.2 11.7 16.6 17.4 25 1 1.2 1.7 2.6 1.6 4.3-5.8-.5-11.5-1.8-16.8-4.4-6.6-8.2-12.2-17-18-26-.7-1-1.4-2.3-1.3-3.8 3.4-1.2 7-2 10.6-2z"/><path fill="#C3178D" d="M446.8 215.8c4.6-8.3 10.7-15.6 14.6-24.3 5.2-11.5 7-23.8 9.8-36 3 6 5.2 12.3 5.3 19 0 7-3.6 13-6 19.3-2 4.7-4.4 9.2-6.8 13.6-5 4.2-10.6 7-17 8.4z"/><path fill="#6E2B8A" d="M493.4 310.2l20.5 30.5c1.7 2.6 3.7 5 5.6 7.6-1.4 3-3 6-5 8.5-4.4-3-6.3-8-9.2-12-6.7-9.6-13.6-19-19.4-29.2 3.5-.4 4.7-4 7.4-5.4z"/><path fill="#7C2A8B" d="M477.2 355.6c2.7-.8 4-3 5.6-5 5.2 7.5 10.5 15 15.7 22.7.7 1 1.2 2.2 2.4 2.6-2.6 4-5.8 7.5-9.4 10.6-2 .8-3-.5-4-1.8-4.5-6.8-9.4-13.3-13.8-20.2-.6-1-1-2.3-.5-3.5 1-2 3.6-3 4-5.4z"/><path fill="#8C288C" d="M446.8 383.2c3.5-2.7 7-5.4 10.7-8 .7 0 1.4.2 1.8.8 5.7 7.7 11 15.6 16.3 23.6.4.7.3 1.4 0 2-3.2 3.4-7 6-11 8-1 .3-1.7-.3-2.2-1-5.3-7.2-10.4-14.4-15-22-.8-1-1.2-2.2-.6-3.4zM424.6 351.5l10.5-10.7c4 2.8 6 7 8.4 10.8l11 16c-4.8 2.7-10 4.4-15.7 5.3h-.5c-6.4-5.7-11-12.6-14-20.6-.2-.2.2-.6.4-1z"/><path fill="#612C89" d="M480.6 265.7l5.3-16c3 .2 4.2 2.8 5.7 5 4.7 6.5 8.5 13.7 14.2 19.5-1.7 5.5-3.8 10.8-6.5 16-1.7 1-2.7-.3-3.4-1.4-5-7.7-10.7-15-15.4-23z"/><path fill="#E30C8C" d="M299.6 489.2c5.3 3.4 11.5 4.5 17 7.4.2 2.6 2.2 3.8 4 5.2 12 9 23.8 18 35.7 26.8 1 .7 1.5 1.5 1.6 2.7-3 .5-5.6 1.7-8.6 1.3-5.2-6.7-12.6-10.8-19.2-16-11.6-9-23.4-17.7-35-26.5-1.2-.7-2-1.6-2-3l6.4 2.2z"/><path fill="#99258C" d="M447.8 423.8l8.5-2.2c6.2 12 15 22.3 22 33.8 1.4 2 3.7 2 5.4 3-1 2-2.3 3.3-4 4.3-5.6 4-6.4 4-10.4-1.5C462 451 455 440.5 448 430c-1.3-1.8-3.6-4-.2-6.2z"/><path fill="#762A8A" d="M229 185.4c-9-8.3-19.4-15-29-22.4l-9-6.6c-1-.8-2-1.6-.4-3 .6-.5 1.3-1 2.2-1 2.8-.4 5.5.6 8.2 1.2 3 1 6.4 1.2 9 3.5 5.4 6 12.3 10.3 18.6 15.2 2.4 2 4.8 3.6 7 5.6 1.3 1 3 2.2 1.6 4.3-2.6 1.6-5.3 2.7-8.2 3.4z"/><path fill="#9D248D" d="M447.8 423.8c-1.4 1.8-.4 3.3.6 4.8 7 10.4 14.4 20.6 21.3 31.2 2.8 4.3 5.5 6 10 3-1 1.7-2.5 3-4.3 4-.5.2-1.2 0-1.5.2-6 4.8-8.6.4-11.4-3.8-7.2-11-14.5-21.6-21.8-32.4-1-1.6-2.3-3-2.4-5.2.4-1 1-1.6 2.2-1l7.2-.8z"/><path fill="#C8148C" d="M399.2 502c1.4.2 2.8.6 4.2 1 1.5 1 2.7 2.2 4.2 3 2 1.2 3.2 2.8 5 4 1.2 1 .3 1.7-.7 2.3-1 .5-2 1.5-3.2 1.3-3-2.3-6.3-4.5-9.4-6.7-1-.7-1.7-1.8-2.6-1.8-10.7-.3-14.2-9-19.2-16-4.4-6.3-8.6-12.8-13-19-1-1.8-2.3-3.3-2.5-5.3h8.6c6 7 10.8 15 16 22.7 2.6 4 5.7 7.5 8 11.7 1 1.7 2.2 3.3 4.6 2.5z"/><path fill="#532D87" d="M525.2 265.7l12.6-26c3.3 15.6 4 30.3 2 45-1.6 1.3-2.8.3-3.7-.7-4.2-5-7.6-10.4-11-15.8-.5-.7-.5-1.7.2-2.5z"/><path fill="#86298B" d="M454.5 367.5c-.7-.3-1.7-.5-2.2-1-6.2-8.4-12-16.8-17.2-25.7l7.5-8.6c4.8 3.6 7 9 10.3 13.7 4 5.4 8.4 10.8 11 17.2-2.8 2-6 3.6-9.3 4.3z"/><path fill="#572D89" d="M525.2 265.7c4.3 6.8 7.6 14.3 14.6 19-.5 6.6-1.6 13-3.2 19-2 .5-3-.8-4-2-5.4-6.7-10-14.2-14.7-21.3-.5-.6-.7-1.3-.3-2l7.5-12.7z"/><path fill="#81298B" d="M463.8 363.2c-7.7-10-15-20.2-21.3-31 2-2.8 4.2-5.6 6.4-8.4 0 3.3 2.6 5.2 4.2 7.7l16 23.4c.8 1.2 1.8 2.4 3.3 3-2.5 2.4-5.5 4-8.7 5.2z"/><path fill="#86298B" d="M475.6 401.6l-18-26.5 9.3-7.8c6 8.7 12.6 17 17.2 26.8-2.6 3-5.3 5.6-8.6 7.6z"/><path fill="#87298B" d="M500.7 438.3c-6.4-8.8-13.8-17-18-27.3l9.7-5.2c5.6 7.3 11.4 14.6 15.5 23-2 3.4-4.5 6.7-7.3 9.5z"/><path fill="#5D2D89" d="M517.7 278.4l15 21.3c1 1.5 2.5 2.8 4 4l-3.3 11.8c-1-.5-2.2-.7-2.7-1.4-6.5-8.8-12.8-17.8-18.3-27.3l5.3-8.3z"/><path fill="#732B89" d="M237.2 182c-2.3-5-7.4-7-11.3-10.2-4.7-4-9.7-7.4-14.6-11-1-.8-1.7-1.7-1.8-3 1.6-.8 3 0 4.6.2 4.3 1.8 9 2.7 13.3 4 3 1.6 6 2.5 9 4 2 1 4.2 1.6 6.2 2.6 3 2 7 2.7 9.3 6 1 .7 2 1.4 3.2 2-6 2-12 3.7-18 5.5z"/><path fill="#95268D" d="M483.7 458.4c-2.5 1-4.4.8-6-1.8L457 426.2c-.8-1.4-2.2-2.7-.7-4.6l6.4-2c6 8 11.7 16.5 17.3 25 2.2 3.3 4.5 6.6 7 9.6-.4 2-1.7 3.2-3.3 4.2z"/><path fill="#692C89" d="M473.3 282.8l5.2-12c3.7 2.3 5.3 6 7.6 9.4 3.6 5 7 10.2 10.5 15.2-.8 4-3.2 7.3-5.4 10.6-1.5 1.2-2.6 0-3.5-1-5-6.7-10-13.5-14.2-20.7-.2-.5-.2-1 0-1.5z"/><path fill="#5D2D89" d="M506 274.2c-3.8 0-4.6-3.4-6.3-5.6-5-6-8-13.4-13.8-19l3-11.4c6.2 4.7 9 12 13.8 18 2 2.4 3.3 5.6 6.3 7.4l-3 10.6z"/><path fill="#C4178D" d="M354.5 423.4c6 8.7 12 17.3 17.8 26 .7 1 1 2.5 1.5 3.8-6.6-1.6-12.6-4.5-18.2-8.2-3-4.8-6.3-9.5-9.3-14.3-1-1.8-3-3.6-1-6 3-.8 6-1.4 9.2-1.3z"/><path fill="#92278D" d="M487 454.2c-1.5 0-2.6-.8-3.4-2l-20.4-30c-.4-.7-.3-1.8-.5-2.6l6.4-2.3c7 10 13.7 20 20.5 30.2.7 1 1.6 1.4 2.7 1.4-1 2.2-3 3.8-5 5.2z"/><path fill="#81298B" d="M484.2 394c-6.5-7.5-11-16.4-17-24.2-.4-.6-.2-1.7-.3-2.6l6.3-6c5.6 8.7 11 17.8 18.3 25.4-2 2.8-4.6 5.3-7.4 7.4z"/><path fill="#7C2A8B" d="M500.6 401c4.3-3 8.6-5.7 12.8-8.4 4 3 5 8.5 9.6 10.8-2.2 5.7-5.5 10.8-8.8 16-1.6 1-2.7-.2-3.5-1.2-3.6-5-7-10-10-15.3-.5-.8-.4-1.5 0-2z"/><path fill="#6E2C8A" d="M473.3 282.8l14 20c1 1.3 1.6 3.2 3.8 3.2-1.3 3-3.2 5.8-5.3 8.5-.3 0-.8 0-1-.3-5.5-7.4-11.6-14.5-15.6-23 1.5-2.8 3-5.6 4.3-8.4z"/><path fill="#95268D" d="M459.8 413c-2.4 2.6-5.8 3.7-8.7 5.3-6.8-7.2-11.5-16-17-24-.7-.8-.5-1.7 0-2.4l7.4-5c5.3 5.7 8.7 12.7 13.4 18.8 1.8 2.3 4 4.4 5 7.3z"/><path fill="#99258D" d="M434 392c4.5 6.5 8.8 13 13.2 19.7 1.5 2.2 3.4 4 4 6.6-2 1.6-4 2.7-6.2 3.3-1.8.5-3-.7-4-2-5.2-6.6-9.6-14-14.4-21-.5-.7-.6-1.5 0-2.3l7.5-4.4z"/><path fill="#82298B" d="M500.6 401c3.6 5.2 7 10.4 10.5 15.7 1 1.2 1.6 2.5 3.2 2.6l-6.3 9.5c-5.8-7.4-11.8-14.4-15.6-23l8.2-5z"/><path fill="#97268D" d="M429 375c-6.3 1.6-12.7 2-19.2 1.8-2-2.6-4.6-4.8-4.3-8.4l12.7-10.6c5 5 9 10.3 10.8 17z"/><path fill="#9D248D" d="M426.7 396.3c6 8.6 10.5 18 18.3 25.3-1 1.6-3.5 1-4.4 3l-2.2 1c-7.6-7.4-12.6-16.7-18.2-25.6l6.5-3.7z"/><path fill="#762C8A" d="M523 403.4c-1 .4-2.2 1.5-3.2 0-2-3.7-5.2-6.7-6.4-10.8 6.5-5 13-10 19.5-14.8-2.2 9.3-5.3 17.8-10 25.6z"/><path fill="#91278D" d="M459.8 413c-7.8-7.4-13.4-16.5-18.4-26l5.4-3.8c5.2 9.3 11.8 17.7 17.8 26.5-1.2 1.8-3 2.6-4.8 3.4z"/><path fill="#92288D" d="M429 375l-10.8-17.2 6.4-6.3c3.7 7.8 9 14.6 14 21.4-3 1.3-6.2 2-9.6 2z"/><path fill="#C9168D" d="M345.2 424.7c1 5.4 5 9 7.6 13.4 1.2 2.3 3.5 4 2.8 7-9.4-4.6-17.2-11.3-25.8-19.3l15.4-1z"/><path fill="#662D89" d="M496.5 295.4c-1 0-2-.4-2.7-1.4-5-7.7-10.2-15.4-15.3-23 .2-2 1-3.7 2-5.3 6.5 5.5 10 13.4 15 20 1.2 1.6 1.7 3.8 4 4.4-.4 2.2-1.7 3.8-3 5.4z"/><path fill="#B61D8D" d="M410.5 460.4c1.3.2 2.4.6 3 1.7 6.7 9.7 13.8 19 19.6 29.3-3.6 2.4-5.4-.4-7-2.8-5.5-7.8-11-15.6-16-23.5-1.5-2-3-3.6-5.6-3.4 2-1.2 4-1 6-1.2z"/><path fill="#C01B8E" d="M463.7 207.4c0-6.8 5.2-11.6 7-17.8 1.5-5 3.8-10 5.8-15 2 13.4-1.7 24.5-12.8 32.8z"/><path fill="#C8168C" d="M399.2 502c-2.5 1.4-3.6 1.4-5-.8-7.6-11-15-22-22.4-33-.6-1-.8-2.2-1.2-3.3l3.2-.2c0 3 2.5 5 4 7.2l17.8 26c1 1.6 2 3 3.6 4z"/><path fill="#9F288F" d="M405.5 368.4c1.3 2.8 4.4 4.8 4.3 8.4-4.5.3-9 0-13.8-1.2 2.8-3 6.3-5 9.5-7.2z"/><path fill="#B61D8D" d="M442.6 494.3c-1.2-2.2-3.3-3-5.3-4 6.2-4.3 7-4.3 10.7.2l-5.4 3.8z"/><path fill="#C8168C" d="M412 512.3c.5-3.5-4-3.4-4.4-6.2 3.4.5 5 4.4 8.4 4.3-1 1-2.4 2-4 2z"/><path fill="#63388F" d="M38.3 352.5l1-2c1.5 2 .8 4.3 1 6.5l-2-4.5z"/><path fill="#EB108E" d="M200.3 379c1.6 2 .6 4.3.8 6.5-1-2-.7-4.2-.7-6.4z"/><path fill="#D2128C" d="M148 328.2c-1.5-2-.6-4.3-.8-6.5 1 2 1 4.3.7 6.5z"/><path fill="#7B2A8A" d="M138.7 155.6c-1.2 0-2.4 0-3.2 1-3 1.2-6.3 2.2-9.5 3.3-2.4-2.7-2.6-6-2.4-9 1.2-19.5 2.7-39 7.3-58 2-9.3 5.3-18.2 7.6-27.4 5.3-3.8 10.8-7.2 17-9.6 3.6 1.2 2 4 1.4 6-2.2 6.5-4.7 12.8-6.7 19.4-6 19.5-9.5 39.3-10.3 59.7-.2 5 0 10-1.3 14.6z"/><path fill="#762A8A" d="M138.6 65.6c1.8 1.5 1 3 .4 4.8-6.3 18.8-10.6 38-12 57.7-.8 10.7-2.4 21.2-1 32-.4.2-.7.6-1 1l-8.5 3c-2.8-1.8-2.5-4.7-2.6-7.5-.6-17 1-33.8 4-50.4 2-10.3 4.4-20.6 6.8-31 4-4 9-6.6 13.8-9.4z"/><path fill="#81298B" d="M138.7 155.6c-2.7-8.2 0-16.4.4-24.5.8-13.7 3.4-27.3 7-40.7 2.8-10 6-19.6 9.7-29 .7-1.8 2-3.6 0-5.3 4.8-3.2 10-5.8 15.8-7.4 2 2.3.3 4.3-.5 6.4-4 9.3-8 18.6-10.4 28.5-.6 1.5-1.7 2.7-3 3.7-5.3 5-8 11-6.5 18.4.4 1.2.4 2.4-.6 3.4-3.7 6.2-3.6 13.2-4 20-.6 8-2 16.3-1.3 24.5l-6.3 2z"/><path fill="#612C88" d="M78.4 198l-2.2 2c-2.8-1-3.3-3.5-3.6-6-1.8-17-4-34-2.4-51 .5-4.6 0-9.2.8-13.8 3.7-5.7 7.8-11 12.6-16 4.2 1.7 2.6 5.3 2.4 8-.8 11-2 21.8-1.8 32.7 0 10 .8 20 1.8 30 .2 1.5.3 3-.2 4.6l-1 2-6.4 7.4z"/><path fill="#692C89" d="M99.6 175.8l-3.3 4.2-5.2 3.3c-1.8-.8-2.3-2.5-2.4-4.3-1.6-15-1.8-30.2-.7-45.4.6-9.6 1.7-19.2 3-28.8 3.6-4.2 7.4-8.2 11.7-11.6 3.7 1.5 2.3 4.6 2 7-1.3 10-2.8 19.6-3.8 29.4-1.4 13.6-.6 27-.8 40.6 0 2 .6 4-.6 5.6z"/><path fill="#722B89" d="M124.8 75c1.6 1.2 1.5 3 1 4.4-4.5 14.7-7.2 29.8-8.8 45-1.4 13.2-3.2 26.5-.5 39.7l-1 2.2c-2.3.3-3.8 1.8-5.4 3.2l-2 1c-2-1.5-2.4-3.8-2.5-6-1-27.5 1.8-54.5 8.7-81 3.2-3.3 6.5-6.3 10.6-8.3z"/><path fill="#6E2B89" d="M114.2 83.4c1.4 6.4-1.8 12-2.5 18.3-1.3 10-3 20.3-4 30.5-.5 7.7-.7 15.4-.8 23 0 5.2-.3 10.2 1 15.2-1.7 1.5-4 2-5.3 4.3l-3 1c-1-2.7-1.2-5.7-1.3-8.7-.4-23 .4-46 5.2-69 .3-1.5.7-3.4-1-4.8 3.7-3.6 7.2-7.2 11.6-9.8z"/><path fill="#5C2D88" d="M71 129.2c2 5 1.5 10.5.7 15.5-2 11.2 1 22.2.7 33.4-.2 5 1.3 9.7 1.6 14.6.2 2.7 1 5 2.2 7.4l-3 4.4-3.2 4.2-1.2.8c-3.5-2-3-5.7-3.5-9-3-18.2-3.7-36.7-3.5-55.3v-2c2.6-4.8 5.6-9.5 9.2-13.8z"/><path fill="#582D88" d="M61.7 143c2.5 1.5 2 4 1.8 6.2-.5 19.2 1 38.3 4.3 57.3.2 1 .6 2 1 3-2.3 1.6-2.4 4.5-4 6.5l-2.2 2.2c-3.2-.2-3.3-2.8-3.7-5-3-15-4.8-30.2-5.5-45.5 0-3-.5-6-.8-9 2.5-5.5 5.3-10.8 9-15.7z"/><path fill="#552D88" d="M52.7 158.7c1.8 1.3 2.3 3 2.3 5 0 17 3 33.4 5.3 50 .3 1.7.8 3.3 2.3 4.5l-4.5 8.3-2 2c-4.2-9.2-4.5-19.2-6.2-29-1-7-2.2-14.2-2.2-21.4 0-1.7-.7-3.3-2.2-4.4 2-5.2 4.2-10.3 7.3-15z"/><path fill="#652C88" d="M91 104.8c3 5.5 0 11-.4 16.3-1.5 17-2.8 34-.7 51 .4 3.7-1 7.6 1 11.3v1l-5.2 4.3c-3.5-6.4-2-13.5-2.8-20-1-10.8-.5-21.5 0-32.2.4-7.7 3.3-15.4.6-23.2 2.4-3 4.3-6 7.4-8.4z"/><path fill="#87288B" d="M160 83.5c0-8 4.2-14.6 6.6-21.8 1.5-4.4 4.5-8.3 5-13 4.2-2.7 8.8-4.2 13.6-5.3 2.3 2 2.5 2.2 1 5.2-2.5 5.2-4.8 10.5-7.2 15.8-1.8 3.8-3.4 7.7-4.4 11.8-4.4 3.5-8.7 7-14.7 7.3z"/><path fill="#99258C" d="M222.3 34c3-1.8 6.3-1 9.5-1.2 3.2.7 3.5 1 1.7 4-3 5-7 9.3-10 14.3-4.4 7.7-9.4 15-12.7 23.5-.5 1.3-1 2.6-2.4 3.4-4 .4-7.7 0-10.6-3.3 5.7-9 9.6-19 15.5-28 3-4.2 5.6-8.8 9-12.8z"/><path fill="#8D288C" d="M173.7 76.3c.4-8 5.5-14 8-21.3 1-2.6 2.4-5 3.6-7.5.7-1.4 1.7-2.8 0-4 4.3-2.3 8.8-4 13.7-4.4 3.4.8 3.7 1.4 2 5-3.6 7-7.8 13.4-10.6 20.6l-3 7.8c-4.2 2.4-8.5 5-13.7 4z"/><path fill="#9D248D" d="M208.6 77.4c4.6-14 13-26 21.5-38 1.2-1.6 2.5-3 3.4-4.7.8-1.5-.6-1.7-1.6-2 3.4-2 7-.6 10.6-1h2.2c1.4 2-.2 3.4-1.2 4.7-10.2 12-18.7 25.4-25.4 39.7-.8 1.7-1.6 3.3-3.3 4-2.6.4-5 .6-6-2.6z"/><path fill="#95268C" d="M222.3 34c-1.3 6-6 10-8.8 15-4.2 7.4-8.3 14.7-12 22.3-.7 1.8-1.4 3-3.6 3-3 1.4-5.5.6-7.6-1.6 6-9.8 10.3-20.7 16.7-30.3 1.6-2.2 2.8-4.6 4.8-6.4 3.3-1.7 7-1.2 10.5-2z"/><path fill="#90278C" d="M211.8 36c-1.4 5.4-5.2 9.5-7.8 14.2-3.3 5.8-6.4 11.8-9 18-1 2-2 3.6-4.4 3.8-1 1-2.2 1-3.2 0-1.6-2 0-3.7.6-5.4 3.4-8.3 7.7-16 12.2-23.7 1-2 1.6-3.4-1.2-4 4-2 8.4-2.2 12.8-3z"/><path fill="#BA1B8C" d="M252 174.6l-9.6-5c-3.6-9.6-2.6-19.4-2-29.2 0-2.5.5-5-1-7-.4-1-.5-1.7.2-2.4 4-1 7-3.2 8.4-7.2 1.2-1.8 1.6-4.3 4-5.2 1.8 1.8 1.3 4 1 6-3.3 15.2-4.3 30.4-1 45.8.2 1.3 0 2.8 0 4.2z"/><path fill="#C7178C" d="M252 118.6c-1 1.7-1.5 4-3.2 5.3-2-2.2-1.6-4.8-1-7 2.6-8.3 4.6-16.7 7.4-25l7.4 2.2c-1.8 9-7 16.3-10.6 24.4z"/><path fill="#DF0E8C" d="M370 88c32.2-.6 59 26.8 58.8 60.3-.2 33-27.2 62.4-61.8 61.3-33-1-57.2-26.7-57.2-59.8 0-34.4 25.8-61.5 60.3-62z"/><path fill="#EB0C8D" d="M221.3 81.5l6.4 2c.4 1 1.2 1 2 1.2 1.5 2 .4 3.7 0 5.6-3.5 12.3-7.3 24.6-10.8 37-.8 2.7-1.7 5.5-4.5 7-3.6 1-7.2 1-10.8-.2-2-1.6-1-3.5-.5-5.3l12.3-42c.6-2.2 1-4.6 3.3-5.8 1-.3 1.8 0 2.5.5z"/><path fill="#E40D8D" d="M215 133.3c4.8-10.7 6.6-22.4 10.4-33.5 1.8-5 3-10 4.4-15 2.3 0 4.5.5 6.3 2 1 1 1 2 .7 3-4 14.2-7.8 28.4-12.6 42.4-1 1-2.3 1.5-3.6 2-1.6.4-3.3.6-5-.3 0-.3-.2-.5-.4-.7z"/><path fill="#DF108D" d="M223.4 132.4C226.7 117 232 102 236 86.8h2.2l1 1c1.3 1.5 1 3 .6 4.6-3.6 12-7 24.3-10.7 36.3-.4 1.5-1 3-2.3 4-1 .6-2.3.6-3.3-.3z"/><path fill="#CB178C" d="M255.2 92c1.6 4.3-1.4 7.8-2 11.6-1 6.8-5.2 13-4.4 20.3-1.2 4.2-2.8 8-8.4 7.3-1.3-1.4-1-3-.6-4.5 3.2-11.4 6-22.8 10-34 .2-.7.6-1.3 1-1.7h2.3c.5 1 1.3 1 2.2 1z"/><path fill="#EC168E" d="M187.4 72h3.2c2.2 1.4 4.7 2 7.3 2.2 3.2 2 7 2.5 10.6 3.2 2 1.4 4 2 6.3 2 .3.5.4 1 .4 1.6-4.2 17-9.5 33.5-14.3 50.2-.3 1.4-.8 2.7-2 3.7-1.7 1-3.8 1-6 1h-1.7c-3.2 0-6.4-.4-9.6.6-4.7.7-9.5.6-14.3 0-4.2-1.4-5.6-5.6-8.3-8.6-2.3-3.5-4.4-7-5.5-11.3l-3-7.7c-3.5-11 .6-19 9.4-25.5l13.7-7.2c4.5-1.5 9-3 13.7-4.4z"/><path fill="#8B288C" d="M159.8 127.3l6.4 8.3c6.5 1 6.7 1 6.8 8.2 0 2.8 1.6 5 1.7 7.6h-17c-3.2-6.8-2-20 2-24z"/><path fill="#87288B" d="M159.8 127.3c-3.4 7.8-1.6 16-2 24l-4 1c-2.6.4-4.6-.4-4.4-3 .6-9.7 1.4-19.3 2.4-29 0-1.2 1-2.4 1.7-3.6 2.8 3 4.2 7 6.3 10.6z"/><path fill="#93268C" d="M174.7 151.4c-3.8-1.3-3.4-4.4-3-7.3.3-4.2-.2-7.8-5.5-8.4h16c.5-.5 1-.4 1.5.2.5 5.3.7 10.6-1.6 15.6h-7.3z"/><path fill="#98258C" d="M182 151.4c0-5.3.2-10.6 1.2-15.8 2.6-1.4 5.7.2 8.4-1h1c3 6.3 1.8 12.6 0 19h-2c-2.5-2-5.8-1-8.5-2.2z"/><path fill="#D2148C" d="M251 91c-1 8.2-4.5 15.7-6.4 23.7-1.3 5.5-3.5 11-4.2 16.6l-1 1c-.7.8-1.5 1-2.4 1.3-1.8.2-3.6.2-5-1-1-1.5-.4-3 0-4.5 3.2-11.7 7-23.4 10.2-35 .4-1.7 1-3 2.4-4h2l4.3 2z"/><path fill="#DA138D" d="M244.6 89L232 132.3c-2 1.6-3.6 1.6-5.4 0L239.3 88c2-.2 3.7 0 5.3 1z"/><path fill="#A2238D" d="M215 80.4v-1c7.5-16.3 16.6-31.7 28.6-45.2.6-.6.7-1.6 1-2.4 2.6.2 6.3-1.3 7.5.7 1.6 2.5-2 4.3-3.6 6C240 48.4 233 59 226.7 70.2c-2 3.8-3.3 8-5.4 11.5h-2c-1.4-.7-3.2.6-4.3-1z"/><path fill="#C8168C" d="M407.6 506c-2 0-3.3-1.4-4.2-3 2.2 0 3.3 1.4 4.2 3z"/><path fill="#A5228D" d="M203.3 133.4H215c.2.5.7 1 .8 1.4 1.2 8 .4 16-2 24-1.5.2-2.8-.3-4.2-1-2.8-1-5.6-2-8.4-3.2-3-6.6-1.4-13.3-.6-20 .5-1.3 1.2-2.2 2.7-1.2z"/><path fill="#9D248D" d="M201.2 134.5v20l-8.5-1v-19c2 0 4.2 0 6.4-.2.8-.5 1.5-.5 2.2.2z"/><path fill="#AB208D" d="M214 158.8c-1-8.5 1.5-16.8 1-25.3h5.2c.3-.3.6-.5 1-.5 8.4-.7 8.7-.5 9 8 .2 5.3.2 10.6 0 15.8 0 2.4.2 5-2.6 6.3-4.7-.8-9.5-1.6-13.7-4.2z"/><path fill="#B31D8D" d="M227.6 163c2.5-9.2.5-18.7 1-28 0-1.4-1.5-1.6-2.6-1.6h-5.8c.8-1.2 2-1 3.2-1H237c1.7 3 .4 6.5.5 9.8.2 6.2 0 12.4 0 18.5 0 2.3.3 4.7-1.6 6.5-2.6-1.6-6-1.8-8.4-4z"/><path fill="#B71C8C" d="M236 167.2c0-8.7.2-17.4 0-26 0-3 .3-6 1.2-8.8h2c2.7-.3 3.7 1.2 3.2 3.4-2.2 11.3-.4 22.5 0 33.7l-6.3-2.3z"/><path fill="#E30C8C" d="M326.8 119.6c-1.2-1.8.2-3 1-4.2 23-29 63-27.7 83.5-.3 20 26.7 12 62-13.6 79.4-31 21-72.8 3-80.3-34-2.4-12-1-23.3 4-34.2.6-1.6 1-3.8 3.6-3.5.4.3.6.7.6 1.2-.3 1.8-.5 3.6.5 5.3.8 2 2 3.6 1.5 5.8-9.6 28 10.2 57.8 39.6 59.4 23.3 1.4 45.7-19.5 46.6-43.4 1-24.3-14-43-37.8-47.3-12-2-22.6 1.7-32.3 8.5-1.6 1-3 2.6-4.5 3.7-4.2.8-8.3 1.8-12.2 3.6z"/><path fill="#FEFEFE" d="M326.8 119.6c3-4.4 7.5-4.4 12-4.4 4-.2 6.6 2 8.7 5.3 4.7 8.6-1.4 19-12.7 19.4-3.2-1-6.5-1.8-7.8-5.5l-2.2-5.4c-.4-1.6-.4-3.4 0-5l.2-1.3 1.8-3z"/><path fill="#EB108E" d="M201.2 134.5l-2-.2c4-15 8.3-30.2 12.7-45.2.8-2.8.7-6.2 3-8.6 1.5.2 3-.3 4.2 1-4.8 10.8-6.8 22.4-10.5 33.5-2 6-3.6 12.2-5.4 18.4-1 0-1.7.3-2 1z"/><path fill="#9D248D" d="M191.6 134.6c-2.6 2-5.6.5-8.4 1h-1c3-2 6.2-.8 9.4-1z"/><path fill="#E60A8D" d="M346.5 120.7c-1.7-3-5-4-7.7-5.5 5.6-7.6 14-10.6 22.5-12.4 17.4-3.6 32.2 2 43.2 15.6 11.6 14.2 13.8 30.4 7 47.5-7.7 19.3-25 30.4-43.8 29.8-23.7-.7-44-20.8-43.6-44.2 0-5.8-1.4-12 3-17 2.4 1.4 4.5 3.6 7.6 4 1.6 1.7 1.3 3.8 1 6-2.4 18.5 10 35.5 28.5 39 16.5 3 35-10 38.5-27.6 5-25.6-14.3-42.8-33.2-42.4-6 .2-11.7 2.2-17 5.2-1.8 1-3.5 2.6-5.8 2z"/><path fill="#DF0E8C" d="M325 124c-.2 1.7-.2 3.4-.2 5-1.2-1.6-1.2-3.4 0-5z"/><path fill="#EB0B8D" d="M346.5 120.7c7.4-4.8 15.2-8.7 24.4-8.5 17.7.3 33.5 16 33.5 34s-8 30-23.2 36.5c-20.7 8.7-42.2-6-46.8-26-1.5-6.2.2-12 0-18.2 11.6-1.6 15.4-7.2 12-17.8z"/><path fill="#EB0F8E" d="M354.7 148.7c0-8 7-15.3 15-15.3 7.5 0 14.7 7.3 14.7 15 0 7.8-8 15.8-15.6 15.7-7.5 0-14-7.2-14-15.3z"/><path fill="#EC148E" d="M369 155.7c-4 0-6.7-2-7-6.2 0-4.7 2.8-7.6 7.5-7.6 3.8 0 7.3 3 7.3 6.7 0 3.3-4 7-7.8 7z"/></svg>