<svg xmlns="http://www.w3.org/2000/svg" width="1649" height="2500" viewBox="0 0 256 388"><defs><linearGradient id="a" x1="17.6%" x2="0%" y1="22.3%" y2="77.7%"><stop stop-color="#AACE36" offset="0%"/><stop stop-color="#2FA042" offset="100%"/></linearGradient><linearGradient id="b" x1="0%" y1="30.3%" y2="45.4%"><stop stop-color="#79A933" offset="0%"/><stop stop-color="#70A333" offset="13%"/><stop stop-color="#559332" offset="34%"/><stop stop-color="#277B2F" offset="58%"/><stop stop-color="#005F27" offset="86%"/><stop stop-color="#005020" offset="100%"/></linearGradient><linearGradient id="c" x1="13.8%" x2="64.5%" y1="0%" y2="100%"><stop stop-color="#79AB35" offset="0%"/><stop stop-color="#7CBA3D" offset="53%"/><stop stop-color="#00AA4B" offset="100%"/></linearGradient></defs><path fill="#7CBA3D" d="M253 231.5c-7.3-36-29.2-66.5-59.3-85v-.2a130.5 130.5 0 0 0-8.7-4.8L104.4 101l-4.3-2a44.7 44.7 0 0 1-.7-.5H99v-.2A55.7 55.7 0 0 1 78 79.8c-6-8.8-9.4-19.4-9.4-30.8 0-21.3 12-39.7 29.5-49l-26 13.3C29.2 34.7 0 79 0 130l2 22.5c7 40.5 32.6 74.5 67.8 93a.5.5 0 0 0 .2 0v.2h.2a1 1 0 0 1 .2 0l8 4.2v-.2l9.7 5 67.4 33.6c18.5 9 31.2 28 31.2 50v.7c-.2 14.3-5.8 27.3-15 37a55.5 55.5 0 0 1-14.4 11l16.7-8.5 9.2-4.7c42.8-21.4 72.2-65.6 72.2-116.8l-2.5-25.7"/><path fill="#C5D83E" d="M0 130C0 79 29.4 34.7 72.2 13.3L98.2 0C80.8 9.3 69 27.7 69 49c0 11.4 3.5 22 9.4 30.8-8.8 22-14 44.7-15.7 67.3a81.8 81.8 0 0 1-37 9l-3.8-.2A82.5 82.5 0 0 1 2 152.5L0 130zm186.6 208.4zm0 0zm0 0zm0 .2zm0 0zm0 0zm0 0zm0 .2zm0 0zm0 0zm0 .2zm0 0zm0 0zm0 .2z"/><path fill="url(#a)" d="M78.5 250l-8-4.2a1 1 0 0 0-.2 0H70v-.2h-.2C34.6 227 9 193 1.8 152.5a82.5 82.5 0 0 0 20 3.2h3.7a81.8 81.8 0 0 0 37-8.7c-2.7 35.5 3 70.7 16 103"/><path fill="url(#b)" d="M104.4 101l-4.3-2a44.7 44.7 0 0 1-.7-.5H99v-.2A55.7 55.7 0 0 1 78 79.8c-8.8 22-14 44.7-15.7 67.3A82.7 82.7 0 0 0 97.8 113l6.6-11.8zM253 231.5c-30.8 20.3-67.5 32-106.7 32h-9a194 194 0 0 1-49.2-8.8l67.4 33.7c18.5 9 31.2 28 31.2 50v.7c-.2 14.3-5.8 27.3-15 37a55.5 55.5 0 0 1-14.4 11l16.7-8.5 9.2-4.7c42.8-21.4 72.2-65.6 72.2-116.8l-2.5-25.7z"/><path fill="url(#c)" d="M146.3 263.6c-3 0-6 0-9-.2a194 194 0 0 1-49.2-8.7l-9.5-4.8c-13-32.3-18.7-67.5-16-103A82.7 82.7 0 0 0 97.8 113l6.6-11.8 80.6 40.5a130.5 130.5 0 0 1 8.6 4.8c30.2 18.7 52 49.3 59.3 85.2-30.8 20.3-67.5 32-106.7 32"/></svg>