<svg class="springlogo" viewBox="0 0 106.41 106.41" xmlns="http://www.w3.org/2000/svg"><defs><style>.springlogo .cls-1{fill:#70ad51}</style></defs><path class="cls-1" d="M96.95 6.06a48.88 48.88 0 0 1-5.66 10 53.17 53.17 0 1 0-74.26 76.11l2 1.74a53.15 53.15 0 0 0 87.26-36.87c1.42-13.49-2.56-30.61-9.34-50.98zM24.59 92.53a4.55 4.55 0 1 1-.71-6.39 4.55 4.55 0 0 1 .71 6.39zm72.13-15.91C83.6 94.09 55.59 88.2 37.63 89.04c0 0-3.18.18-6.38.71 0 0 1.21-.52 2.76-1.05 12.61-4.36 18.57-5.24 26.24-9.18 14.4-7.38 28.74-23.44 31.63-40.14-5.46 16.06-22.14 29.88-37.32 35.49-10.39 3.84-29.18 7.56-29.18 7.57l-.76-.4c-12.74-6.23-13.15-33.9 10.06-42.82 10.2-3.92 19.91-1.77 30.91-4.39 11.73-2.78 25.29-11.58 30.84-23.12 6.2 18.4 13.63 47.14.29 64.91z"/></svg>