<svg xmlns="http://www.w3.org/2000/svg" class="springlogo" viewBox="0 0 106.4 106.4"><defs><style>.springlogo .cls-1 {fill:#70ad51}</style></defs><path d="M97 6a49 49 0 0 1-5.7 10A53.2 53.2 0 1 0 17 92.3l2 1.7a53 53 0 0 0 87.3-37c1.4-13.4-2.6-30.6-9.4-51zM24.5 92.6A4.5 4.5 0 1 1 24 86a4.5 4.5 0 0 1 .6 6.5zm72-16c-13 17.6-41 11.7-59 12.5 0 0-3.2.2-6.4.8 0 0 1.3-.6 2.8-1 12.6-4.5 18.6-5.3 26.2-9.3C74.8 72 89 56 92 39.5c-5.6 16-22.3 29.8-37.4 35.4-10.4 3.7-29.2 7.4-29.2 7.4l-.8-.4c-12.7-6.2-13-34 10-42.8 10.3-4 20-1.7 31-4.4C77.3 32 91 23.3 96.4 11.8c6.2 18.3 13.7 47 .3 64.8z" class="cls-1"/></svg>