<svg xmlns="http://www.w3.org/2000/svg" viewBox="0 0 400 400"><g fill="none" fill-rule="evenodd"><path fill="#007ACC" d="M0 200V0h400v400H0"/><path fill="#FFF" d="M87.7 200.7V217h52v148h37V217h52v-16c0-9 0-16.3-.5-16.5 0-.3-31.7-.4-70.2-.4l-70 .4v16.4zM321.4 184c10.2 2.4 18 7 25 14.3 3.7 4 9.2 11 9.6 12.8 0 .7-17.3 12.4-27.8 19-.4.2-2-1.5-3.6-4-5.2-7.5-10.5-10.7-18.8-11.3-12-.8-20 5.5-20 16 0 3.2.6 5 1.8 7.6 2.7 5.5 7.7 8.8 23.2 15.6 28.6 12.2 41 20.3 48.5 32 8.5 13 10.4 33.3 4.7 48.6-6.4 16.7-22 28-44.3 31.7-7 1.2-23 1-30.5-.3-16-3-31.3-11-40.7-21.3-3.7-4-10.8-14.7-10.4-15.4l4-2.4 15-8.8 11.2-6.6 2.6 3.5c3.3 5.3 10.7 12.3 15 14.7 13 6.7 30.4 5.8 39-2 3.7-3.4 5.3-7 5.3-12 0-4.6-.6-6.7-3-10.2-3-4.4-9.5-8-27.5-16-20.7-8.8-29.5-14.4-37.7-23-4.7-5.2-9-13.3-11-20-1.5-5.8-2-20-.6-25.7 4.3-20 19.4-34 41-38 7-1.4 23.5-.8 30.4 1z"/></g></svg>