<svg version="1" xmlns="http://www.w3.org/2000/svg" width="682.667" height="682.667" viewBox="0 0 512.000000 512.000000"><path d="M242.8 21.5c-.2.2-3.9.6-8.3.9-4.4.3-9.1.8-10.5 1.1-1.4.3-4.5.7-6.9 1-2.4.3-4.6.7-5 .9-.3.2-2.4.7-4.6 1-5.6.9-17.4 4.2-28 7.8-4.9 1.7-9.5 3.1-10.2 3.1-.7 0-1 .4-.7.9.3.4-.2.8-1.2.8-3.5 0-34 16.2-43.6 23.2-1 .7-3.4 2.4-5.4 3.8-4.6 3.2-15.7 12.4-21.3 17.5C91 89 78.1 102 78.7 102c.2 0-1.8 2.6-4.5 5.7-2.7 3.2-8.3 10.8-12.3 16.8-9.5 14.3-9.5 14.2-12 19.5-1.2 2.5-2.6 4.8-3.1 5.1-.5.3-.9.9-.9 1.3.1.3-1.5 3.9-3.4 8s-3.5 7.7-3.5 8.1c0 .4-.6 2.1-1.4 3.8-1.6 3.8-6 15.8-6.2 17.2-.1.5-.7 3-1.5 5.5-1.4 5-1.3 4.5-2.9 11.5-.6 2.7-1.6 5.3-2.3 5.7-.9.6-.9.8.1.8.8 0 1.1.7.8 1.7-3.5 11.8-5.3 50.9-3.1 68.8.4 3.3.8 6.9 1 8 .1 1.1.5 3.1.8 4.5.3 1.4 1.1 5.4 1.8 9 2 9.8 2.3 10.9 6.2 23.5 1.7 5.5 3.2 10.2 3.2 10.5.8 2.7 7.8 18.5 8.6 19.5.5.5.9 1.7.9 2.6 0 .9.7 2.2 1.5 2.9.8.7 1.3 1.6 1 2-.3.4.2 1.3 1.1 2 .8.7 1.2 2 .9 2.9-.3.8-.3 1.2.1.8.4-.4 1.3.5 2.1 1.9 1.6 3.2 1.7 4.8.1 3.8-.7-.4-.8-.3-.4.4.4.6 1.3.9 2.1.5.9-.3 1.5.1 1.5 1.1 0 .9.4 1.6.8 1.6.5 0 1.4 1.1 2 2.5.7 1.4 3 5 5.2 8 4.1 5.6 4.9 7.2 2.8 5.9-.7-.4-.8-.3-.4.5.4.6 1.1.9 1.6.6.9-.6 6.1 5.9 6.4 8 .1.8.6 1.8 1.1 2.2.4.4.5.1.1-.7-.5-.8 1 .5 3.2 3 2.2 2.4 3.8 4.9 3.5 5.4-.3.5-.2.6.4.3 1.4-.9 7.6 6.1 6.7 7.5-.4.6-.3.8.4.4.6-.3 3.7 1.9 6.9 5s6.8 6.3 8 7.1c1.3.8 2 1.9 1.7 2.4-.3.5-.1.8.4.7.6-.2 3.3 1.5 6.2 3.6 3.8 2.9 4.8 4.1 3.8 4.8-.9.7-.8.8.5.4 1.1-.3 3.6.7 6.5 2.7 2.6 1.8 7.3 4.8 10.5 6.6 3.1 1.8 5.7 3.7 5.7 4.2s.3.8.8.7c1.4-.4 5.2 1.4 5.2 2.4 0 .6.3.8.6.5 1-.9 4.6 1.2 3.9 2.3-.4.6.2.9 1.2.8 2.2-.3 14.3 5.1 14.3 6.4 0 .5.4.7.9.4 1-.7 7.1 1.3 7.1 2.3 0 .4 1.2.8 2.7.9 1.5.1 3 .7 3.4 1.3.3.6.8.9 1 .8.2-.2 3.3.5 6.9 1.6 3.6 1 6.9 1.8 7.4 1.6.5-.1.6.6.2 1.5-.5 1.4-.4 1.5.9.4 1.8-1.5 4.9-.5 3.9 1.2-.6 1-.5 1 .7.1 1.2-1 2.1-.9 4.2.2 1.6.8 2.5.9 2.1.3-.4-.7-.3-.8.5-.4 1.1.7 4.1 1.4 9.1 2.1 1.4.2 2.5.4 2.5.5 0 .2 3 .6 8.3 1.1 1.7.2 3.2.7 3.2 1.2s.6.5 1.3-.1c1-.9 1.9-.7 3.7.5 1.3.9 2 1.1 1.6.5-.5-.8 0-1.2 1.3-1.2 1.1 0 2.3.5 2.6 1 .4.6 1 .8 1.5.5.5-.3 9.3-.7 19.7-.9 10.3-.3 19.9-.7 21.3-1 2.5-.5 7.6-1.3 13.5-2.2 3.7-.5 7-1.2 7-1.4 0-.1.9-.3 1.9-.5 1.1-.2 3.1-.6 4.4-1 1.7-.4 2.2-.2 1.7.7-.4.7 0 .5.8-.5.8-.9 2.1-1.7 2.9-1.7 2.2 0 21.1-6.1 22.5-7.2.7-.6 2-.8 2.8-.4 1.1.4 1.4.2.9-.6-.5-.7 0-.9 1.4-.6 1.3.4 2.3 0 2.7-1 .3-.8.8-1.2 1.1-.9.3.3 3.1-.8 6.1-2.4 3-1.6 5.2-2.4 4.8-1.7-.4.7.1.4.9-.6.9-1.1 1.6-1.6 1.6-1.2 0 .4 1.4-.2 3-1.4 1.7-1.2 3-1.8 3-1.3 0 .4.4.3.8-.3.8-1.2 6.8-4.5 7.8-4.3.4 0 1-.4 1.3-.9 1.1-1.7 9.2-6.3 10.1-5.7.5.3 1.2 0 1.6-.6.5-.8.2-1-.7-.5-.8.4-.6.1.5-.6 1-.7 3.8-2.8 6.2-4.6 2.4-1.8 4.9-3 5.4-2.7.6.4.9.2.8-.4-.4-1.4 9.2-9.2 10.3-8.5.5.3.8.2.7-.3-.4-1.1 7.7-9.3 9.2-9.3.6 0 .8-.4.5-1-.6-1 .6-1.4 3.5-1.1 1.3.2 1.3 0 .1-.8-1.2-.7-.8-1.6 1.9-4.5 1.8-1.9 3.8-3.2 4.3-2.9.6.3.7.2.4-.4-.3-.5.4-2 1.6-3.4 1.2-1.3 4-4.7 6.2-7.4 2.2-2.8 4.2-5.2 4.5-5.5.3-.3 2.3-3.1 4.4-6.2 2.1-3.2 4.2-5.5 4.6-5.3.4.2.7-.2.7-.9 0-1.6 7.2-13.7 9.3-15.4.8-.8 1-1.1.3-.8-.7.4-.6-.4.3-2.4.9-1.7 2-2.8 2.5-2.5.5.4.6-.1.3-.9s.3-2.8 1.4-4.4c1.2-1.5 2.4-4.1 2.8-5.6.3-1.5 1.3-3 2-3.3.8-.3 1.2-.9.9-1.3-.6-1 1.4-7 3-9 .7-.8 1-2.1.8-2.8-.3-.6 0-1.2.6-1.2s1-.3.9-.8c-.5-1.4 2.5-10.2 3.2-9.7.5.3.6-.4.3-1.5s-.2-2.8.2-3.7c.5-1 .9-2.3 1-2.8.2-.6 1-3.8 1.9-7.3.9-3.4 1.9-8.1 2.2-10.5.3-2.3.8-4.9 1.1-5.7.7-2 1.5-8.6 1.7-13.7 0-2.4.3-4.3.6-4.3s.4-1.6.2-3.6c-.4-2.9-.2-3.5.9-2.8 1.1.6 1 .3-.1-1.1-.8-1-1.5-1.9-1.4-1.9.9-1.1 2.4-4.7 1.7-4.3-.4.3-.8-4.3-.7-10.1 0-5.9-.3-11.7-.7-12.9-.5-1.3-.4-2.5.2-2.8.5-.4.7-1.1.3-1.6-.3-.6-.8-2.5-1-4.2-.3-1.8-.7-4.3-1-5.5-.3-1.8-.1-2.2.8-1.6 1 .6 1.1.5.1-.7-.7-.9-1.5-3.3-1.9-5.5-.8-5.6-4.1-20.2-5.7-25.4-.7-2.5-1.5-5-1.7-5.5-2.6-8.7-6.4-19.1-9.4-25.4-1.4-3-2.2-5.9-1.9-6.5.3-.6.3-.8-.2-.4-.4.4-2.4-2.6-4.5-6.5-3.8-7.4-14.8-25.8-16-26.7-.3-.3-2.1-2.8-4-5.5-1.9-2.8-3.6-5.2-3.9-5.5-.3-.3-3.3-3.6-6.6-7.5C407.2 71.8 369 46.3 330 33.3c-5.8-1.9-11.2-3.6-12-3.8-.8-.2-5.3-1.2-10-2.3-7.8-1.8-15.5-3.2-20.5-3.7-1.1-.1-4.9-.6-8.5-1-6.7-.7-35.6-1.5-36.2-1zM17 271.4c0 .2.7.7 1.6 1 .8.3 1.2.2.9-.4-.6-1-2.5-1.4-2.5-.6zm458.6 79.9c.3 1 .9 1.5 1.2 1.2.3-.3 0-1.1-.7-1.8-1-.9-1.1-.8-.5.6z"/><path d="M55.6 384.7c-.6 1.4-.5 1.5.5.6.7-.7 1-1.5.7-1.8-.3-.3-.9.2-1.2 1.2zm5.7 6.8c0 .8.4 1.2.9.9.5-.3.6-1 .3-1.5-.9-1.3-1.2-1.1-1.2.6zm6.2 10.4c-.3.5-.2 1.2.3 1.5.5.3.9-.1.9-.9 0-1.7-.3-1.9-1.2-.6zm42 40.1c.3.5.8 1 1.1 1 .2 0 .4-.5.4-1 0-.6-.5-1-1.1-1-.5 0-.7.4-.4 1zm283.5 8c0 .5.5 1 1.1 1 .5 0 .7-.5.4-1-.3-.6-.8-1-1.1-1-.2 0-.4.4-.4 1zm-10.4 6.2c.3.5 1 .6 1.5.3 1.3-.9 1.1-1.2-.6-1.2-.8 0-1.2.4-.9.9zm-248 3.6c-.3.5.1.9.9.9s1.2-.4.9-.9c-.3-.4-.7-.8-.9-.8-.2 0-.6.4-.9.8zm14.4 9.7c0 .7 3 1.3 3.4.7.3-.4-.4-.9-1.5-.9-1-.1-1.9 0-1.9.2zm16.5 6.5c-.3.5-.1 1 .4 1 .6 0 1.1-.5 1.1-1 0-.6-.2-1-.4-1-.3 0-.8.4-1.1 1zm175.1 2.2c.3.5 1 .6 1.5.3 1.3-.9 1.1-1.2-.6-1.2-.8 0-1.2.4-.9.9zm-8.7 2.5c-1.3 1.6-1.2 1.7.4.4.9-.7 1.7-1.5 1.7-1.7 0-.8-.8-.3-2.1 1.3zm-12.9 3.7c.7.7 1.3.7 2 0 .6-.6.3-1-1-1s-1.6.4-1 1zm-144.1 1.3c-1.3 1.6-1.2 1.7.4.4 1.6-1.3 2.1-2.1 1.3-2.1-.2 0-1 .8-1.7 1.7zm8.6-.8c-.3.5-.2 1.2.3 1.5.5.3.9-.1.9-.9 0-1.7-.3-1.9-1.2-.6zm6.5 1.1c.8.5 2 1 2.5 1 .6 0 .3-.5-.5-1s-1.9-1-2.5-1c-.5 0-.3.5.5 1zm15 3.4c0 .2.7.7 1.6 1 .8.3 1.2.2.9-.4-.6-1-2.5-1.4-2.5-.6zm92 .7c0 .5.5.7 1 .4.6-.3 1-.8 1-1.1 0-.2-.4-.4-1-.4-.5 0-1 .5-1 1.1zm4.5-.1c.3.5.8 1 1.1 1 .2 0 .4-.5.4-1 0-.6-.5-1-1.1-1-.5 0-.7.4-.4 1zm8-.1c-.3.5-.2 1.2.3 1.5.5.3.9-.1.9-.9 0-1.7-.3-1.9-1.2-.6zm-83.9 3.9c-.3.5.1.9.9.9s1.2-.4.9-.9c-.3-.4-.7-.8-.9-.8-.2 0-.6.4-.9.8zm23.9.2c.3.5.8 1 1.1 1 .2 0 .4-.5.4-1 0-.6-.5-1-1.1-1-.5 0-.7.4-.4 1zm4 0c.3.5.8 1 1.1 1 .2 0 .4-.5.4-1 0-.6-.5-1-1.1-1-.5 0-.7.4-.4 1zm21.9-.2c.4.3 1.4.7 2.2.8.9.1 1.3 0 1-.4-.4-.3-1.4-.7-2.2-.8-.9-.1-1.3 0-1 .4z"/></svg>